21:45:43.896 22.09.2014 - [@ CLI.processInLine(73)              ] [CLI]	The Police - So Lonely
21:45:43.903 22.09.2014 - [@ CLI.processInLine(73)              ] [CLI]	https://i.ytimg.com/vi/MX6MvV8cbh8/hqdefault.jpg
21:45:43.905 22.09.2014 - [@ CLI.processInLine(73)              ] [CLI]	Music video by The Police performing So Lonely. (C) 1980 A&M Records Ltd.
21:45:44.381 22.09.2014 - [@ CLI.processInLine(73)              ] [CLI]	[youtube] Setting language
21:45:45.376 22.09.2014 - [@ CLI.processInLine(73)              ] [CLI]	[youtube] MX6MvV8cbh8: Downloading webpage
21:45:45.600 22.09.2014 - [@ CLI.processInLine(73)              ] [CLI]	[youtube] MX6MvV8cbh8: Downloading video info webpage
21:45:45.895 22.09.2014 - [@ CLI.processInLine(73)              ] [CLI]	[youtube] MX6MvV8cbh8: Extracting video information
21:45:46.017 22.09.2014 - [@ CLI.processInLine(73)              ] [CLI]	[youtube] MX6MvV8cbh8: Encrypted signatures detected.
21:45:46.021 22.09.2014 - [@ CLI.processInLine(73)              ] [CLI]	[youtube] MX6MvV8cbh8: Downloading js player vflE7vgXe
21:45:46.218 22.09.2014 - [@ CLI.processInLine(73)              ] [CLI]	[info] Available formats for MX6MvV8cbh8:
21:45:46.219 22.09.2014 - [@ CLI.processInLine(73)              ] [CLI]	format code extension resolution  note 
21:45:46.220 22.09.2014 - [@ CLI.processInLine(73)              ] [CLI]	171         webm      audio only  DASH audio , audio@128k (worst)
21:45:46.221 22.09.2014 - [@ CLI.processInLine(73)              ] [CLI]	140         m4a       audio only  DASH audio , audio@128k
21:45:46.222 22.09.2014 - [@ CLI.processInLine(73)              ] [CLI]	160         mp4       144p        DASH video , video only
21:45:46.223 22.09.2014 - [@ CLI.processInLine(73)              ] [CLI]	242         webm      240p        DASH video , video only
21:45:46.224 22.09.2014 - [@ CLI.processInLine(73)              ] [CLI]	133         mp4       240p        DASH video , video only
21:45:46.225 22.09.2014 - [@ CLI.processInLine(73)              ] [CLI]	243         webm      360p        DASH video , video only
21:45:46.226 22.09.2014 - [@ CLI.processInLine(73)              ] [CLI]	134         mp4       360p        DASH video , video only
21:45:46.227 22.09.2014 - [@ CLI.processInLine(73)              ] [CLI]	244         webm      480p        DASH video , video only
21:45:46.228 22.09.2014 - [@ CLI.processInLine(73)              ] [CLI]	135         mp4       480p        DASH video , video only
21:45:46.229 22.09.2014 - [@ CLI.processInLine(73)              ] [CLI]	17          3gp       176x144     
21:45:46.230 22.09.2014 - [@ CLI.processInLine(73)              ] [CLI]	36          3gp       320x240     
21:45:46.232 22.09.2014 - [@ CLI.processInLine(73)              ] [CLI]	5           flv       400x240     
21:45:46.233 22.09.2014 - [@ CLI.processInLine(73)              ] [CLI]	43          webm      640x360     
21:45:46.234 22.09.2014 - [@ CLI.processInLine(73)              ] [CLI]	18          mp4       640x360     (best)
21:45:46.718 22.09.2014 - [@ CLI.processInLine(73)              ] [CLI]	[youtube] Setting language
21:45:47.860 22.09.2014 - [@ CLI.processInLine(73)              ] [CLI]	[youtube] MX6MvV8cbh8: Downloading webpage
21:45:48.109 22.09.2014 - [@ CLI.processInLine(73)              ] [CLI]	[youtube] MX6MvV8cbh8: Downloading video info webpage
21:45:48.401 22.09.2014 - [@ CLI.processInLine(73)              ] [CLI]	[youtube] MX6MvV8cbh8: Extracting video information
21:45:48.528 22.09.2014 - [@ CLI.processInLine(73)              ] [CLI]	[youtube] MX6MvV8cbh8: Encrypted signatures detected.
21:45:48.773 22.09.2014 - [@ CLI.processInLine(73)              ] [CLI]	[download] Destination: C:\Users\Niklas\git\Advanced-Youtube-Downloader\YTDownload\temp\The Police - So Lonely.mp4
21:45:48.774 22.09.2014 - [@ CLI.processInLine(73)              ] [CLI]	
21:45:48.784 22.09.2014 - [@ CLI.processInLine(73)              ] [CLI]	[download]   0.0% of 13.00MiB at     ---b/s ETA Unknown ETA
21:45:48.785 22.09.2014 - [@ CLI.processInLine(73)              ] [CLI]	[download]   0.0% of 13.00MiB at 250.00KiB/s ETA 00:53     
21:45:48.787 22.09.2014 - [@ CLI.processInLine(73)              ] [CLI]	[download]   0.1% of 13.00MiB at 583.34KiB/s ETA 00:22     
21:45:48.790 22.09.2014 - [@ CLI.processInLine(73)              ] [CLI]	[download]   0.1% of 13.00MiB at  1.22MiB/s ETA 00:10      
21:45:48.801 22.09.2014 - [@ CLI.processInLine(73)              ] [CLI]	[download]   0.2% of 13.00MiB at  1.78MiB/s ETA 00:07      
21:45:48.814 22.09.2014 - [@ CLI.processInLine(73)              ] [CLI]	[download]   0.5% of 13.00MiB at  2.12MiB/s ETA 00:06      
21:45:48.830 22.09.2014 - [@ CLI.processInLine(73)              ] [CLI]	[download]   1.0% of 13.00MiB at  2.95MiB/s ETA 00:04      
21:45:48.852 22.09.2014 - [@ CLI.processInLine(73)              ] [CLI]	[download]   1.9% of 13.00MiB at  4.29MiB/s ETA 00:02      
21:45:48.897 22.09.2014 - [@ CLI.processInLine(73)              ] [CLI]	[download]   3.8% of 13.00MiB at  6.24MiB/s ETA 00:02      
21:45:48.986 22.09.2014 - [@ CLI.processInLine(73)              ] [CLI]	[download]   7.7% of 13.00MiB at  7.99MiB/s ETA 00:01      
21:45:49.175 22.09.2014 - [@ CLI.processInLine(73)              ] [CLI]	[download]  15.4% of 13.00MiB at  9.39MiB/s ETA 00:01      
21:45:49.533 22.09.2014 - [@ CLI.processInLine(73)              ] [CLI]	[download]  30.8% of 13.00MiB at  9.92MiB/s ETA 00:00      
21:45:49.890 22.09.2014 - [@ CLI.processInLine(73)              ] [CLI]	[download]  61.5% of 13.00MiB at 10.51MiB/s ETA 00:00      
21:45:49.977 22.09.2014 - [@ CLI.processInLine(73)              ] [CLI]	[download]  92.3% of 13.00MiB at 10.73MiB/s ETA 00:00      
21:45:49.987 22.09.2014 - [@ CLI.processInLine(73)              ] [CLI]	[download] 100.0% of 13.00MiB at 10.80MiB/s ETA 00:00      
21:45:49.988 22.09.2014 - [@ CLI.processInLine(73)              ] [CLI]	[download] 100% of 13.00MiB in 00:01                       
21:45:50.390 22.09.2014 - [@ CLI.processInLine(73)              ] [CLI]	ffmpeg version N-66154-g1654ca7 Copyright (c) 2000-2014 the FFmpeg developers
21:45:50.392 22.09.2014 - [@ CLI.processInLine(73)              ] [CLI]	  built on Sep  5 2014 22:10:38 with gcc 4.8.3 (GCC)
21:45:50.394 22.09.2014 - [@ CLI.processInLine(73)              ] [CLI]	  configuration: --enable-gpl --enable-version3 --disable-w32threads --enable-avisynth --enable-bzlib --enable-fontconfig --enable-frei0r --enable-gnutls --enable-iconv --enable-libass --enable-libbluray --enable-libbs2b --enable-libcaca --enable-libfreetype --enable-libgme --enable-libgsm --enable-libilbc --enable-libmodplug --enable-libmp3lame --enable-libopencore-amrnb --enable-libopencore-amrwb --enable-libopenjpeg --enable-libopus --enable-librtmp --enable-libschroedinger --enable-libsoxr --enable-libspeex --enable-libtheora --enable-libtwolame --enable-libvidstab --enable-libvo-aacenc --enable-libvo-amrwbenc --enable-libvorbis --enable-libvpx --enable-libwavpack --enable-libwebp --enable-libx264 --enable-libx265 --enable-libxavs --enable-libxvid --enable-decklink --enable-zlib
21:45:50.395 22.09.2014 - [@ CLI.processInLine(73)              ] [CLI]	  libavutil      54.  7.100 / 54.  7.100
21:45:50.396 22.09.2014 - [@ CLI.processInLine(73)              ] [CLI]	  libavcodec     56.  1.100 / 56.  1.100
21:45:50.396 22.09.2014 - [@ CLI.processInLine(73)              ] [CLI]	  libavformat    56.  4.100 / 56.  4.100
21:45:50.397 22.09.2014 - [@ CLI.processInLine(73)              ] [CLI]	  libavdevice    56.  0.100 / 56.  0.100
21:45:50.398 22.09.2014 - [@ CLI.processInLine(73)              ] [CLI]	  libavfilter     5.  1.100 /  5.  1.100
21:45:50.399 22.09.2014 - [@ CLI.processInLine(73)              ] [CLI]	  libswscale      3.  0.100 /  3.  0.100
21:45:50.400 22.09.2014 - [@ CLI.processInLine(73)              ] [CLI]	  libswresample   1.  1.100 /  1.  1.100
21:45:50.400 22.09.2014 - [@ CLI.processInLine(73)              ] [CLI]	  libpostproc    53.  0.100 / 53.  0.100
21:45:50.447 22.09.2014 - [@ CLI.processInLine(73)              ] [CLI]	Input #0, mov,mp4,m4a,3gp,3g2,mj2, from 'C:\Users\Niklas\git\Advanced-Youtube-Downloader\YTDownload\temp\The Police - So Lonely.mp4':
21:45:50.448 22.09.2014 - [@ CLI.processInLine(73)              ] [CLI]	  Metadata:
21:45:50.449 22.09.2014 - [@ CLI.processInLine(73)              ] [CLI]	    major_brand     : mp42
21:45:50.449 22.09.2014 - [@ CLI.processInLine(73)              ] [CLI]	    minor_version   : 0
21:45:50.450 22.09.2014 - [@ CLI.processInLine(73)              ] [CLI]	    compatible_brands: isommp42
21:45:50.451 22.09.2014 - [@ CLI.processInLine(73)              ] [CLI]	    creation_time   : 2014-03-07 09:33:59
21:45:50.452 22.09.2014 - [@ CLI.processInLine(73)              ] [CLI]	  Duration: 00:03:12.01, start: 0.000000, bitrate: 567 kb/s
21:45:50.453 22.09.2014 - [@ CLI.processInLine(73)              ] [CLI]	    Stream #0:0(und): Video: h264 (Constrained Baseline) (avc1 / 0x31637661), yuv420p, 480x360 [SAR 1:1 DAR 4:3], 469 kb/s, 25 fps, 25 tbr, 25 tbn, 50 tbc (default)
21:45:50.454 22.09.2014 - [@ CLI.processInLine(73)              ] [CLI]	    Metadata:
21:45:50.455 22.09.2014 - [@ CLI.processInLine(73)              ] [CLI]	      handler_name    : VideoHandler
21:45:50.455 22.09.2014 - [@ CLI.processInLine(73)              ] [CLI]	    Stream #0:1(und): Audio: aac (mp4a / 0x6134706D), 44100 Hz, stereo, fltp, 95 kb/s (default)
21:45:50.457 22.09.2014 - [@ CLI.processInLine(73)              ] [CLI]	    Metadata:
21:45:50.457 22.09.2014 - [@ CLI.processInLine(73)              ] [CLI]	      creation_time   : 2014-03-07 09:33:59
21:45:50.458 22.09.2014 - [@ CLI.processInLine(73)              ] [CLI]	      handler_name    : IsoMedia File Produced by Google, 5-11-2011
21:45:50.459 22.09.2014 - [@ CLI.processInLine(73)              ] [CLI]	Output #0, null, to 'pipe:':
21:45:50.460 22.09.2014 - [@ CLI.processInLine(73)              ] [CLI]	  Metadata:
21:45:50.461 22.09.2014 - [@ CLI.processInLine(73)              ] [CLI]	    major_brand     : mp42
21:45:50.462 22.09.2014 - [@ CLI.processInLine(73)              ] [CLI]	    minor_version   : 0
21:45:50.463 22.09.2014 - [@ CLI.processInLine(73)              ] [CLI]	    compatible_brands: isommp42
21:45:50.464 22.09.2014 - [@ CLI.processInLine(73)              ] [CLI]	    encoder         : Lavf56.4.100
21:45:50.465 22.09.2014 - [@ CLI.processInLine(73)              ] [CLI]	    Stream #0:0(und): Video: rawvideo (I420 / 0x30323449), yuv420p, 480x360 [SAR 1:1 DAR 4:3], q=2-31, 200 kb/s, 25 fps, 25 tbn, 25 tbc (default)
21:45:50.466 22.09.2014 - [@ CLI.processInLine(73)              ] [CLI]	    Metadata:
21:45:50.467 22.09.2014 - [@ CLI.processInLine(73)              ] [CLI]	      handler_name    : VideoHandler
21:45:50.469 22.09.2014 - [@ CLI.processInLine(73)              ] [CLI]	      encoder         : Lavc56.1.100 rawvideo
21:45:50.470 22.09.2014 - [@ CLI.processInLine(73)              ] [CLI]	    Stream #0:1(und): Audio: pcm_s16le, 44100 Hz, stereo, s16, 1411 kb/s (default)
21:45:50.471 22.09.2014 - [@ CLI.processInLine(73)              ] [CLI]	    Metadata:
21:45:50.472 22.09.2014 - [@ CLI.processInLine(73)              ] [CLI]	      creation_time   : 2014-03-07 09:33:59
21:45:50.474 22.09.2014 - [@ CLI.processInLine(73)              ] [CLI]	      handler_name    : IsoMedia File Produced by Google, 5-11-2011
21:45:50.475 22.09.2014 - [@ CLI.processInLine(73)              ] [CLI]	      encoder         : Lavc56.1.100 pcm_s16le
21:45:50.476 22.09.2014 - [@ CLI.processInLine(73)              ] [CLI]	Stream mapping:
21:45:50.477 22.09.2014 - [@ CLI.processInLine(73)              ] [CLI]	  Stream #0:0 -> #0:0 (h264 (native) -> rawvideo (native))
21:45:50.478 22.09.2014 - [@ CLI.processInLine(73)              ] [CLI]	  Stream #0:1 -> #0:1 (aac (native) -> pcm_s16le (native))
21:45:50.479 22.09.2014 - [@ CLI.processInLine(73)              ] [CLI]	Press [q] to stop, [?] for help
21:45:50.480 22.09.2014 - [@ CLI.processInLine(73)              ] [CLI]	[null @ 000000000492d2c0] Encoder did not produce proper pts, making some up.
21:45:50.481 22.09.2014 - [@ CLI.processInLine(73)              ] [CLI]	[silencedetect @ 0000000002e86bc0] silence_start: -0.00154195
21:45:50.482 22.09.2014 - [@ CLI.processInLine(73)              ] [CLI]	[silencedetect @ 0000000002e86bc0] silence_end: 1.11456 | silence_duration: 1.1161
21:45:50.955 22.09.2014 - [@ CLI.processInLine(73)              ] [CLI]	frame= 1697 fps=0.0 q=0.0 size=N/A time=00:01:08.52 bitrate=N/A    
21:45:51.456 22.09.2014 - [@ CLI.processInLine(73)              ] [CLI]	frame= 3364 fps=3362 q=0.0 size=N/A time=00:02:14.90 bitrate=N/A    
21:45:51.830 22.09.2014 - [@ CLI.processInLine(73)              ] [CLI]	[silencedetect @ 0000000002e86bc0] silence_start: 184.783
21:45:51.856 22.09.2014 - [@ CLI.processInLine(73)              ] [CLI]	frame= 4800 fps=3429 q=0.0 Lsize=N/A time=00:03:12.00 bitrate=N/A    
21:45:51.857 22.09.2014 - [@ CLI.processInLine(73)              ] [CLI]	
21:45:51.858 22.09.2014 - [@ CLI.processInLine(73)              ] [CLI]	video:450kB audio:33076kB subtitle:0kB other streams:0kB global headers:0kB muxing overhead: unknown
21:45:52.182 22.09.2014 - [@ CLI.processInLine(73)              ] [CLI]	ffmpeg version N-66154-g1654ca7 Copyright (c) 2000-2014 the FFmpeg developers
21:45:52.183 22.09.2014 - [@ CLI.processInLine(73)              ] [CLI]	  built on Sep  5 2014 22:10:38 with gcc 4.8.3 (GCC)
21:45:52.184 22.09.2014 - [@ CLI.processInLine(73)              ] [CLI]	  configuration: --enable-gpl --enable-version3 --disable-w32threads --enable-avisynth --enable-bzlib --enable-fontconfig --enable-frei0r --enable-gnutls --enable-iconv --enable-libass --enable-libbluray --enable-libbs2b --enable-libcaca --enable-libfreetype --enable-libgme --enable-libgsm --enable-libilbc --enable-libmodplug --enable-libmp3lame --enable-libopencore-amrnb --enable-libopencore-amrwb --enable-libopenjpeg --enable-libopus --enable-librtmp --enable-libschroedinger --enable-libsoxr --enable-libspeex --enable-libtheora --enable-libtwolame --enable-libvidstab --enable-libvo-aacenc --enable-libvo-amrwbenc --enable-libvorbis --enable-libvpx --enable-libwavpack --enable-libwebp --enable-libx264 --enable-libx265 --enable-libxavs --enable-libxvid --enable-decklink --enable-zlib
21:45:52.185 22.09.2014 - [@ CLI.processInLine(73)              ] [CLI]	  libavutil      54.  7.100 / 54.  7.100
21:45:52.186 22.09.2014 - [@ CLI.processInLine(73)              ] [CLI]	  libavcodec     56.  1.100 / 56.  1.100
21:45:52.186 22.09.2014 - [@ CLI.processInLine(73)              ] [CLI]	  libavformat    56.  4.100 / 56.  4.100
21:45:52.187 22.09.2014 - [@ CLI.processInLine(73)              ] [CLI]	  libavdevice    56.  0.100 / 56.  0.100
21:45:52.188 22.09.2014 - [@ CLI.processInLine(73)              ] [CLI]	  libavfilter     5.  1.100 /  5.  1.100
21:45:52.189 22.09.2014 - [@ CLI.processInLine(73)              ] [CLI]	  libswscale      3.  0.100 /  3.  0.100
21:45:52.190 22.09.2014 - [@ CLI.processInLine(73)              ] [CLI]	  libswresample   1.  1.100 /  1.  1.100
21:45:52.190 22.09.2014 - [@ CLI.processInLine(73)              ] [CLI]	  libpostproc    53.  0.100 / 53.  0.100
21:45:52.192 22.09.2014 - [@ CLI.processInLine(73)              ] [CLI]	Input #0, mov,mp4,m4a,3gp,3g2,mj2, from 'C:\Users\Niklas\git\Advanced-Youtube-Downloader\YTDownload\temp\The Police - So Lonely.mp4':
21:45:52.193 22.09.2014 - [@ CLI.processInLine(73)              ] [CLI]	  Metadata:
21:45:52.193 22.09.2014 - [@ CLI.processInLine(73)              ] [CLI]	    major_brand     : mp42
21:45:52.194 22.09.2014 - [@ CLI.processInLine(73)              ] [CLI]	    minor_version   : 0
21:45:52.195 22.09.2014 - [@ CLI.processInLine(73)              ] [CLI]	    compatible_brands: isommp42
21:45:52.195 22.09.2014 - [@ CLI.processInLine(73)              ] [CLI]	    creation_time   : 2014-03-07 09:33:59
21:45:52.196 22.09.2014 - [@ CLI.processInLine(73)              ] [CLI]	  Duration: 00:03:12.01, start: 0.000000, bitrate: 567 kb/s
21:45:52.197 22.09.2014 - [@ CLI.processInLine(73)              ] [CLI]	    Stream #0:0(und): Video: h264 (Constrained Baseline) (avc1 / 0x31637661), yuv420p, 480x360 [SAR 1:1 DAR 4:3], 469 kb/s, 25 fps, 25 tbr, 25 tbn, 50 tbc (default)
21:45:52.197 22.09.2014 - [@ CLI.processInLine(73)              ] [CLI]	    Metadata:
21:45:52.198 22.09.2014 - [@ CLI.processInLine(73)              ] [CLI]	      handler_name    : VideoHandler
21:45:52.199 22.09.2014 - [@ CLI.processInLine(73)              ] [CLI]	    Stream #0:1(und): Audio: aac (mp4a / 0x6134706D), 44100 Hz, stereo, fltp, 95 kb/s (default)
21:45:52.200 22.09.2014 - [@ CLI.processInLine(73)              ] [CLI]	    Metadata:
21:45:52.200 22.09.2014 - [@ CLI.processInLine(73)              ] [CLI]	      creation_time   : 2014-03-07 09:33:59
21:45:52.201 22.09.2014 - [@ CLI.processInLine(73)              ] [CLI]	      handler_name    : IsoMedia File Produced by Google, 5-11-2011
21:45:52.202 22.09.2014 - [@ CLI.processInLine(73)              ] [CLI]	Output #0, null, to 'pipe:':
21:45:52.203 22.09.2014 - [@ CLI.processInLine(73)              ] [CLI]	  Metadata:
21:45:52.204 22.09.2014 - [@ CLI.processInLine(73)              ] [CLI]	    major_brand     : mp42
21:45:52.205 22.09.2014 - [@ CLI.processInLine(73)              ] [CLI]	    minor_version   : 0
21:45:52.206 22.09.2014 - [@ CLI.processInLine(73)              ] [CLI]	    compatible_brands: isommp42
21:45:52.206 22.09.2014 - [@ CLI.processInLine(73)              ] [CLI]	    encoder         : Lavf56.4.100
21:45:52.207 22.09.2014 - [@ CLI.processInLine(73)              ] [CLI]	    Stream #0:0(und): Video: rawvideo (I420 / 0x30323449), yuv420p, 480x360 [SAR 1:1 DAR 4:3], q=2-31, 200 kb/s, 25 fps, 25 tbn, 25 tbc (default)
21:45:52.208 22.09.2014 - [@ CLI.processInLine(73)              ] [CLI]	    Metadata:
21:45:52.209 22.09.2014 - [@ CLI.processInLine(73)              ] [CLI]	      handler_name    : VideoHandler
21:45:52.210 22.09.2014 - [@ CLI.processInLine(73)              ] [CLI]	      encoder         : Lavc56.1.100 rawvideo
21:45:52.211 22.09.2014 - [@ CLI.processInLine(73)              ] [CLI]	    Stream #0:1(und): Audio: pcm_s16le, 44100 Hz, stereo, s16, 1411 kb/s (default)
21:45:52.212 22.09.2014 - [@ CLI.processInLine(73)              ] [CLI]	    Metadata:
21:45:52.214 22.09.2014 - [@ CLI.processInLine(73)              ] [CLI]	      creation_time   : 2014-03-07 09:33:59
21:45:52.215 22.09.2014 - [@ CLI.processInLine(73)              ] [CLI]	      handler_name    : IsoMedia File Produced by Google, 5-11-2011
21:45:52.216 22.09.2014 - [@ CLI.processInLine(73)              ] [CLI]	      encoder         : Lavc56.1.100 pcm_s16le
21:45:52.217 22.09.2014 - [@ CLI.processInLine(73)              ] [CLI]	Stream mapping:
21:45:52.218 22.09.2014 - [@ CLI.processInLine(73)              ] [CLI]	  Stream #0:0 -> #0:0 (h264 (native) -> rawvideo (native))
21:45:52.219 22.09.2014 - [@ CLI.processInLine(73)              ] [CLI]	  Stream #0:1 -> #0:1 (aac (native) -> pcm_s16le (native))
21:45:52.225 22.09.2014 - [@ CLI.processInLine(73)              ] [CLI]	Press [q] to stop, [?] for help
21:45:52.226 22.09.2014 - [@ CLI.processInLine(73)              ] [CLI]	[null @ 000000000492cec0] Encoder did not produce proper pts, making some up.
21:45:52.698 22.09.2014 - [@ CLI.processInLine(73)              ] [CLI]	frame= 1649 fps=0.0 q=0.0 size=N/A time=00:01:06.36 bitrate=N/A    
21:45:53.200 22.09.2014 - [@ CLI.processInLine(73)              ] [CLI]	frame= 3339 fps=3337 q=0.0 size=N/A time=00:02:13.95 bitrate=N/A    
21:45:53.610 22.09.2014 - [@ CLI.processInLine(73)              ] [CLI]	frame= 4800 fps=3400 q=0.0 Lsize=N/A time=00:03:12.00 bitrate=N/A    
21:45:53.611 22.09.2014 - [@ CLI.processInLine(73)              ] [CLI]	
21:45:53.612 22.09.2014 - [@ CLI.processInLine(73)              ] [CLI]	video:450kB audio:33076kB subtitle:0kB other streams:0kB global headers:0kB muxing overhead: unknown
21:45:53.616 22.09.2014 - [@ CLI.processInLine(73)              ] [CLI]	[Parsed_volumedetect_0 @ 000000000495ae60] n_samples: 16934912
21:45:53.616 22.09.2014 - [@ CLI.processInLine(73)              ] [CLI]	[Parsed_volumedetect_0 @ 000000000495ae60] mean_volume: -28.0 dB
21:45:53.617 22.09.2014 - [@ CLI.processInLine(73)              ] [CLI]	[Parsed_volumedetect_0 @ 000000000495ae60] max_volume: -8.7 dB
21:45:53.618 22.09.2014 - [@ CLI.processInLine(73)              ] [CLI]	[Parsed_volumedetect_0 @ 000000000495ae60] histogram_8db: 3
21:45:53.619 22.09.2014 - [@ CLI.processInLine(73)              ] [CLI]	[Parsed_volumedetect_0 @ 000000000495ae60] histogram_9db: 80
21:45:53.620 22.09.2014 - [@ CLI.processInLine(73)              ] [CLI]	[Parsed_volumedetect_0 @ 000000000495ae60] histogram_10db: 308
21:45:53.620 22.09.2014 - [@ CLI.processInLine(73)              ] [CLI]	[Parsed_volumedetect_0 @ 000000000495ae60] histogram_11db: 1232
21:45:53.621 22.09.2014 - [@ CLI.processInLine(73)              ] [CLI]	[Parsed_volumedetect_0 @ 000000000495ae60] histogram_12db: 3974
21:45:53.622 22.09.2014 - [@ CLI.processInLine(73)              ] [CLI]	[Parsed_volumedetect_0 @ 000000000495ae60] histogram_13db: 10046
21:45:53.622 22.09.2014 - [@ CLI.processInLine(73)              ] [CLI]	[Parsed_volumedetect_0 @ 000000000495ae60] histogram_14db: 21028
21:45:53.932 22.09.2014 - [@ CLI.processInLine(73)              ] [CLI]	ffmpeg version N-66154-g1654ca7 Copyright (c) 2000-2014 the FFmpeg developers
21:45:53.932 22.09.2014 - [@ CLI.processInLine(73)              ] [CLI]	  built on Sep  5 2014 22:10:38 with gcc 4.8.3 (GCC)
21:45:53.933 22.09.2014 - [@ CLI.processInLine(73)              ] [CLI]	  configuration: --enable-gpl --enable-version3 --disable-w32threads --enable-avisynth --enable-bzlib --enable-fontconfig --enable-frei0r --enable-gnutls --enable-iconv --enable-libass --enable-libbluray --enable-libbs2b --enable-libcaca --enable-libfreetype --enable-libgme --enable-libgsm --enable-libilbc --enable-libmodplug --enable-libmp3lame --enable-libopencore-amrnb --enable-libopencore-amrwb --enable-libopenjpeg --enable-libopus --enable-librtmp --enable-libschroedinger --enable-libsoxr --enable-libspeex --enable-libtheora --enable-libtwolame --enable-libvidstab --enable-libvo-aacenc --enable-libvo-amrwbenc --enable-libvorbis --enable-libvpx --enable-libwavpack --enable-libwebp --enable-libx264 --enable-libx265 --enable-libxavs --enable-libxvid --enable-decklink --enable-zlib
21:45:53.934 22.09.2014 - [@ CLI.processInLine(73)              ] [CLI]	  libavutil      54.  7.100 / 54.  7.100
21:45:53.935 22.09.2014 - [@ CLI.processInLine(73)              ] [CLI]	  libavcodec     56.  1.100 / 56.  1.100
21:45:53.935 22.09.2014 - [@ CLI.processInLine(73)              ] [CLI]	  libavformat    56.  4.100 / 56.  4.100
21:45:53.936 22.09.2014 - [@ CLI.processInLine(73)              ] [CLI]	  libavdevice    56.  0.100 / 56.  0.100
21:45:53.936 22.09.2014 - [@ CLI.processInLine(73)              ] [CLI]	  libavfilter     5.  1.100 /  5.  1.100
21:45:53.937 22.09.2014 - [@ CLI.processInLine(73)              ] [CLI]	  libswscale      3.  0.100 /  3.  0.100
21:45:53.938 22.09.2014 - [@ CLI.processInLine(73)              ] [CLI]	  libswresample   1.  1.100 /  1.  1.100
21:45:53.939 22.09.2014 - [@ CLI.processInLine(73)              ] [CLI]	  libpostproc    53.  0.100 / 53.  0.100
21:45:53.941 22.09.2014 - [@ CLI.processInLine(73)              ] [CLI]	Input #0, mov,mp4,m4a,3gp,3g2,mj2, from 'C:\Users\Niklas\git\Advanced-Youtube-Downloader\YTDownload\temp\The Police - So Lonely.mp4':
21:45:53.941 22.09.2014 - [@ CLI.processInLine(73)              ] [CLI]	  Metadata:
21:45:53.942 22.09.2014 - [@ CLI.processInLine(73)              ] [CLI]	    major_brand     : mp42
21:45:53.943 22.09.2014 - [@ CLI.processInLine(73)              ] [CLI]	    minor_version   : 0
21:45:53.943 22.09.2014 - [@ CLI.processInLine(73)              ] [CLI]	    compatible_brands: isommp42
21:45:53.944 22.09.2014 - [@ CLI.processInLine(73)              ] [CLI]	    creation_time   : 2014-03-07 09:33:59
21:45:53.945 22.09.2014 - [@ CLI.processInLine(73)              ] [CLI]	  Duration: 00:03:12.01, start: 0.000000, bitrate: 567 kb/s
21:45:53.946 22.09.2014 - [@ CLI.processInLine(73)              ] [CLI]	    Stream #0:0(und): Video: h264 (Constrained Baseline) (avc1 / 0x31637661), yuv420p, 480x360 [SAR 1:1 DAR 4:3], 469 kb/s, 25 fps, 25 tbr, 25 tbn, 50 tbc (default)
21:45:53.947 22.09.2014 - [@ CLI.processInLine(73)              ] [CLI]	    Metadata:
21:45:53.948 22.09.2014 - [@ CLI.processInLine(73)              ] [CLI]	      handler_name    : VideoHandler
21:45:53.948 22.09.2014 - [@ CLI.processInLine(73)              ] [CLI]	    Stream #0:1(und): Audio: aac (mp4a / 0x6134706D), 44100 Hz, stereo, fltp, 95 kb/s (default)
21:45:53.949 22.09.2014 - [@ CLI.processInLine(73)              ] [CLI]	    Metadata:
21:45:53.950 22.09.2014 - [@ CLI.processInLine(73)              ] [CLI]	      creation_time   : 2014-03-07 09:33:59
21:45:53.951 22.09.2014 - [@ CLI.processInLine(73)              ] [CLI]	      handler_name    : IsoMedia File Produced by Google, 5-11-2011
21:45:53.951 22.09.2014 - [@ CLI.processInLine(73)              ] [CLI]	Output #0, mp3, to 'C:\Users\Niklas\git\Advanced-Youtube-Downloader\YTDownload\temp\The Police - So Lonely.mp3':
21:45:53.952 22.09.2014 - [@ CLI.processInLine(73)              ] [CLI]	  Metadata:
21:45:53.953 22.09.2014 - [@ CLI.processInLine(73)              ] [CLI]	    major_brand     : mp42
21:45:53.953 22.09.2014 - [@ CLI.processInLine(73)              ] [CLI]	    minor_version   : 0
21:45:53.954 22.09.2014 - [@ CLI.processInLine(73)              ] [CLI]	    compatible_brands: isommp42
21:45:53.955 22.09.2014 - [@ CLI.processInLine(73)              ] [CLI]	    TSSE            : Lavf56.4.100
21:45:53.956 22.09.2014 - [@ CLI.processInLine(73)              ] [CLI]	    Stream #0:0(und): Audio: mp3 (libmp3lame), 44100 Hz, stereo, s16p, 192 kb/s (default)
21:45:53.957 22.09.2014 - [@ CLI.processInLine(73)              ] [CLI]	    Metadata:
21:45:53.957 22.09.2014 - [@ CLI.processInLine(73)              ] [CLI]	      creation_time   : 2014-03-07 09:33:59
21:45:53.958 22.09.2014 - [@ CLI.processInLine(73)              ] [CLI]	      handler_name    : IsoMedia File Produced by Google, 5-11-2011
21:45:53.958 22.09.2014 - [@ CLI.processInLine(73)              ] [CLI]	      encoder         : Lavc56.1.100 libmp3lame
21:45:53.959 22.09.2014 - [@ CLI.processInLine(73)              ] [CLI]	Stream mapping:
21:45:53.960 22.09.2014 - [@ CLI.processInLine(73)              ] [CLI]	  Stream #0:1 -> #0:0 (aac (native) -> mp3 (libmp3lame))
21:45:53.960 22.09.2014 - [@ CLI.processInLine(73)              ] [CLI]	Press [q] to stop, [?] for help
21:45:54.448 22.09.2014 - [@ CLI.processInLine(73)              ] [CLI]	size=     533kB time=00:00:22.67 bitrate= 192.5kbits/s    
21:45:54.949 22.09.2014 - [@ CLI.processInLine(73)              ] [CLI]	size=    1081kB time=00:00:46.08 bitrate= 192.2kbits/s    
21:45:55.449 22.09.2014 - [@ CLI.processInLine(73)              ] [CLI]	size=    1615kB time=00:01:08.83 bitrate= 192.2kbits/s    
21:45:55.950 22.09.2014 - [@ CLI.processInLine(73)              ] [CLI]	size=    2163kB time=00:01:32.23 bitrate= 192.1kbits/s    
21:45:56.450 22.09.2014 - [@ CLI.processInLine(73)              ] [CLI]	size=    2723kB time=00:01:56.11 bitrate= 192.1kbits/s    
21:45:56.950 22.09.2014 - [@ CLI.processInLine(73)              ] [CLI]	size=    3251kB time=00:02:18.65 bitrate= 192.1kbits/s    
21:45:57.451 22.09.2014 - [@ CLI.processInLine(73)              ] [CLI]	size=    3789kB time=00:02:41.59 bitrate= 192.1kbits/s    
21:45:57.898 22.09.2014 - [@ CLI.processInLine(73)              ] [CLI]	size=    4307kB time=00:03:03.69 bitrate= 192.1kbits/s    
21:45:57.899 22.09.2014 - [@ CLI.processInLine(73)              ] [CLI]	
21:45:57.899 22.09.2014 - [@ CLI.processInLine(73)              ] [CLI]	video:0kB audio:4306kB subtitle:0kB other streams:0kB global headers:0kB muxing overhead: 0.017304%
21:46:01.966 22.09.2014 - [@ GracenoteWebAPI.searchTrack(90)    ] [GRACE]	searching for The Police -  - So Lonely
21:46:04.716 22.09.2014 - [@ GracenoteMetadata.<init>(80)       ] [GRACE]	possible song match:	So Lonely
21:46:04.737 22.09.2014 - [@ WebImage.<init>(33)                ] [GRACE]	saving image http://akamai-b.cdn.cddbp.net/cds/2.0/cover/4058/A18E/3D27/9FD7_medium_front.jpg?cid=10483968 to thumbHTTP_1411415164737.png
21:48:18.834 22.09.2014 - [@ CLI.processInLine(73)              ] [CLI]	The Police - Roxanne
21:48:18.835 22.09.2014 - [@ CLI.processInLine(73)              ] [CLI]	https://i.ytimg.com/vi/3T1c7GkzRQQ/hqdefault.jpg
21:48:18.836 22.09.2014 - [@ CLI.processInLine(73)              ] [CLI]	Music video by The Police performing Roxanne. (C) 1978 A&M Records Ltd.
21:48:19.319 22.09.2014 - [@ CLI.processInLine(73)              ] [CLI]	[youtube] Setting language
21:48:20.397 22.09.2014 - [@ CLI.processInLine(73)              ] [CLI]	[youtube] 3T1c7GkzRQQ: Downloading webpage
21:48:20.637 22.09.2014 - [@ CLI.processInLine(73)              ] [CLI]	[youtube] 3T1c7GkzRQQ: Downloading video info webpage
21:48:20.911 22.09.2014 - [@ CLI.processInLine(73)              ] [CLI]	[youtube] 3T1c7GkzRQQ: Extracting video information
21:48:21.027 22.09.2014 - [@ CLI.processInLine(73)              ] [CLI]	[youtube] 3T1c7GkzRQQ: Encrypted signatures detected.
21:48:21.067 22.09.2014 - [@ CLI.processInLine(73)              ] [CLI]	[info] Available formats for 3T1c7GkzRQQ:
21:48:21.068 22.09.2014 - [@ CLI.processInLine(73)              ] [CLI]	format code extension resolution  note 
21:48:21.069 22.09.2014 - [@ CLI.processInLine(73)              ] [CLI]	171         webm      audio only  DASH audio , audio@128k (worst)
21:48:21.070 22.09.2014 - [@ CLI.processInLine(73)              ] [CLI]	140         m4a       audio only  DASH audio , audio@128k
21:48:21.070 22.09.2014 - [@ CLI.processInLine(73)              ] [CLI]	160         mp4       144p        DASH video , video only
21:48:21.071 22.09.2014 - [@ CLI.processInLine(73)              ] [CLI]	242         webm      240p        DASH video , video only
21:48:21.072 22.09.2014 - [@ CLI.processInLine(73)              ] [CLI]	133         mp4       240p        DASH video , video only
21:48:21.073 22.09.2014 - [@ CLI.processInLine(73)              ] [CLI]	243         webm      360p        DASH video , video only
21:48:21.073 22.09.2014 - [@ CLI.processInLine(73)              ] [CLI]	134         mp4       360p        DASH video , video only
21:48:21.074 22.09.2014 - [@ CLI.processInLine(73)              ] [CLI]	244         webm      480p        DASH video , video only
21:48:21.075 22.09.2014 - [@ CLI.processInLine(73)              ] [CLI]	135         mp4       480p        DASH video , video only
21:48:21.076 22.09.2014 - [@ CLI.processInLine(73)              ] [CLI]	17          3gp       176x144     
21:48:21.077 22.09.2014 - [@ CLI.processInLine(73)              ] [CLI]	36          3gp       320x240     
21:48:21.078 22.09.2014 - [@ CLI.processInLine(73)              ] [CLI]	5           flv       400x240     
21:48:21.079 22.09.2014 - [@ CLI.processInLine(73)              ] [CLI]	43          webm      640x360     
21:48:21.080 22.09.2014 - [@ CLI.processInLine(73)              ] [CLI]	18          mp4       640x360     (best)
21:48:21.571 22.09.2014 - [@ CLI.processInLine(73)              ] [CLI]	[youtube] Setting language
21:48:22.654 22.09.2014 - [@ CLI.processInLine(73)              ] [CLI]	[youtube] 3T1c7GkzRQQ: Downloading webpage
21:48:22.898 22.09.2014 - [@ CLI.processInLine(73)              ] [CLI]	[youtube] 3T1c7GkzRQQ: Downloading video info webpage
21:48:23.182 22.09.2014 - [@ CLI.processInLine(73)              ] [CLI]	[youtube] 3T1c7GkzRQQ: Extracting video information
21:48:23.301 22.09.2014 - [@ CLI.processInLine(73)              ] [CLI]	[youtube] 3T1c7GkzRQQ: Encrypted signatures detected.
21:48:23.305 22.09.2014 - [@ CLI.processInLine(73)              ] [CLI]	[youtube] 3T1c7GkzRQQ: Downloading js player vflE7vgXe
21:48:23.543 22.09.2014 - [@ CLI.processInLine(73)              ] [CLI]	[download] Destination: C:\Users\Niklas\git\Advanced-Youtube-Downloader\YTDownload\temp\The Police - Roxanne.mp4
21:48:23.544 22.09.2014 - [@ CLI.processInLine(73)              ] [CLI]	
21:48:23.544 22.09.2014 - [@ CLI.processInLine(73)              ] [CLI]	[download]   0.0% of 11.99MiB at 999.83KiB/s ETA 00:12
21:48:23.545 22.09.2014 - [@ CLI.processInLine(73)              ] [CLI]	[download]   0.0% of 11.99MiB at 999.99KiB/s ETA 00:12
21:48:23.546 22.09.2014 - [@ CLI.processInLine(73)              ] [CLI]	[download]   0.1% of 11.99MiB at  2.28MiB/s ETA 00:05 
21:48:23.547 22.09.2014 - [@ CLI.processInLine(73)              ] [CLI]	[download]   0.1% of 11.99MiB at  4.88MiB/s ETA 00:02 
21:48:23.566 22.09.2014 - [@ CLI.processInLine(73)              ] [CLI]	[download]   0.3% of 11.99MiB at  6.05MiB/s ETA 00:01 
21:48:23.578 22.09.2014 - [@ CLI.processInLine(73)              ] [CLI]	[download]   0.5% of 11.99MiB at  2.46MiB/s ETA 00:04 
21:48:23.613 22.09.2014 - [@ CLI.processInLine(73)              ] [CLI]	[download]   1.0% of 11.99MiB at  3.45MiB/s ETA 00:03 
21:48:23.714 22.09.2014 - [@ CLI.processInLine(73)              ] [CLI]	[download]   2.1% of 11.99MiB at  3.46MiB/s ETA 00:03 
21:48:24.052 22.09.2014 - [@ CLI.processInLine(73)              ] [CLI]	[download]   4.2% of 11.99MiB at  2.90MiB/s ETA 00:03 
21:48:24.262 22.09.2014 - [@ CLI.processInLine(73)              ] [CLI]	[download]   8.3% of 11.99MiB at  1.96MiB/s ETA 00:05 
21:48:24.526 22.09.2014 - [@ CLI.processInLine(73)              ] [CLI]	[download]  16.7% of 11.99MiB at  2.78MiB/s ETA 00:03 
21:48:25.215 22.09.2014 - [@ CLI.processInLine(73)              ] [CLI]	[download]  33.4% of 11.99MiB at  4.06MiB/s ETA 00:01 
21:48:26.179 22.09.2014 - [@ CLI.processInLine(73)              ] [CLI]	[download]  66.7% of 11.99MiB at  4.78MiB/s ETA 00:00 
21:48:26.180 22.09.2014 - [@ CLI.processInLine(73)              ] [CLI]	[download] 100.0% of 11.99MiB at  4.55MiB/s ETA 00:00 
21:48:26.181 22.09.2014 - [@ CLI.processInLine(73)              ] [CLI]	[download] 100% of 11.99MiB in 00:02                  
21:48:26.507 22.09.2014 - [@ CLI.processInLine(73)              ] [CLI]	ffmpeg version N-66154-g1654ca7 Copyright (c) 2000-2014 the FFmpeg developers
21:48:26.508 22.09.2014 - [@ CLI.processInLine(73)              ] [CLI]	  built on Sep  5 2014 22:10:38 with gcc 4.8.3 (GCC)
21:48:26.509 22.09.2014 - [@ CLI.processInLine(73)              ] [CLI]	  configuration: --enable-gpl --enable-version3 --disable-w32threads --enable-avisynth --enable-bzlib --enable-fontconfig --enable-frei0r --enable-gnutls --enable-iconv --enable-libass --enable-libbluray --enable-libbs2b --enable-libcaca --enable-libfreetype --enable-libgme --enable-libgsm --enable-libilbc --enable-libmodplug --enable-libmp3lame --enable-libopencore-amrnb --enable-libopencore-amrwb --enable-libopenjpeg --enable-libopus --enable-librtmp --enable-libschroedinger --enable-libsoxr --enable-libspeex --enable-libtheora --enable-libtwolame --enable-libvidstab --enable-libvo-aacenc --enable-libvo-amrwbenc --enable-libvorbis --enable-libvpx --enable-libwavpack --enable-libwebp --enable-libx264 --enable-libx265 --enable-libxavs --enable-libxvid --enable-decklink --enable-zlib
21:48:26.510 22.09.2014 - [@ CLI.processInLine(73)              ] [CLI]	  libavutil      54.  7.100 / 54.  7.100
21:48:26.510 22.09.2014 - [@ CLI.processInLine(73)              ] [CLI]	  libavcodec     56.  1.100 / 56.  1.100
21:48:26.511 22.09.2014 - [@ CLI.processInLine(73)              ] [CLI]	  libavformat    56.  4.100 / 56.  4.100
21:48:26.512 22.09.2014 - [@ CLI.processInLine(73)              ] [CLI]	  libavdevice    56.  0.100 / 56.  0.100
21:48:26.513 22.09.2014 - [@ CLI.processInLine(73)              ] [CLI]	  libavfilter     5.  1.100 /  5.  1.100
21:48:26.514 22.09.2014 - [@ CLI.processInLine(73)              ] [CLI]	  libswscale      3.  0.100 /  3.  0.100
21:48:26.514 22.09.2014 - [@ CLI.processInLine(73)              ] [CLI]	  libswresample   1.  1.100 /  1.  1.100
21:48:26.515 22.09.2014 - [@ CLI.processInLine(73)              ] [CLI]	  libpostproc    53.  0.100 / 53.  0.100
21:48:26.516 22.09.2014 - [@ CLI.processInLine(73)              ] [CLI]	Input #0, mov,mp4,m4a,3gp,3g2,mj2, from 'C:\Users\Niklas\git\Advanced-Youtube-Downloader\YTDownload\temp\The Police - Roxanne.mp4':
21:48:26.516 22.09.2014 - [@ CLI.processInLine(73)              ] [CLI]	  Metadata:
21:48:26.517 22.09.2014 - [@ CLI.processInLine(73)              ] [CLI]	    major_brand     : mp42
21:48:26.518 22.09.2014 - [@ CLI.processInLine(73)              ] [CLI]	    minor_version   : 0
21:48:26.518 22.09.2014 - [@ CLI.processInLine(73)              ] [CLI]	    compatible_brands: isommp42
21:48:26.519 22.09.2014 - [@ CLI.processInLine(73)              ] [CLI]	    creation_time   : 2014-03-07 16:02:14
21:48:26.520 22.09.2014 - [@ CLI.processInLine(73)              ] [CLI]	  Duration: 00:03:13.84, start: 0.000000, bitrate: 518 kb/s
21:48:26.520 22.09.2014 - [@ CLI.processInLine(73)              ] [CLI]	    Stream #0:0(und): Video: h264 (Constrained Baseline) (avc1 / 0x31637661), yuv420p, 480x360 [SAR 1:1 DAR 4:3], 420 kb/s, 25 fps, 25 tbr, 25 tbn, 50 tbc (default)
21:48:26.521 22.09.2014 - [@ CLI.processInLine(73)              ] [CLI]	    Metadata:
21:48:26.522 22.09.2014 - [@ CLI.processInLine(73)              ] [CLI]	      handler_name    : VideoHandler
21:48:26.523 22.09.2014 - [@ CLI.processInLine(73)              ] [CLI]	    Stream #0:1(und): Audio: aac (mp4a / 0x6134706D), 44100 Hz, stereo, fltp, 95 kb/s (default)
21:48:26.524 22.09.2014 - [@ CLI.processInLine(73)              ] [CLI]	    Metadata:
21:48:26.525 22.09.2014 - [@ CLI.processInLine(73)              ] [CLI]	      creation_time   : 2014-03-07 16:02:14
21:48:26.525 22.09.2014 - [@ CLI.processInLine(73)              ] [CLI]	      handler_name    : IsoMedia File Produced by Google, 5-11-2011
21:48:26.526 22.09.2014 - [@ CLI.processInLine(73)              ] [CLI]	Output #0, null, to 'pipe:':
21:48:26.527 22.09.2014 - [@ CLI.processInLine(73)              ] [CLI]	  Metadata:
21:48:26.528 22.09.2014 - [@ CLI.processInLine(73)              ] [CLI]	    major_brand     : mp42
21:48:26.529 22.09.2014 - [@ CLI.processInLine(73)              ] [CLI]	    minor_version   : 0
21:48:26.530 22.09.2014 - [@ CLI.processInLine(73)              ] [CLI]	    compatible_brands: isommp42
21:48:26.531 22.09.2014 - [@ CLI.processInLine(73)              ] [CLI]	    encoder         : Lavf56.4.100
21:48:26.532 22.09.2014 - [@ CLI.processInLine(73)              ] [CLI]	    Stream #0:0(und): Video: rawvideo (I420 / 0x30323449), yuv420p, 480x360 [SAR 1:1 DAR 4:3], q=2-31, 200 kb/s, 25 fps, 25 tbn, 25 tbc (default)
21:48:26.533 22.09.2014 - [@ CLI.processInLine(73)              ] [CLI]	    Metadata:
21:48:26.533 22.09.2014 - [@ CLI.processInLine(73)              ] [CLI]	      handler_name    : VideoHandler
21:48:26.534 22.09.2014 - [@ CLI.processInLine(73)              ] [CLI]	      encoder         : Lavc56.1.100 rawvideo
21:48:26.535 22.09.2014 - [@ CLI.processInLine(73)              ] [CLI]	    Stream #0:1(und): Audio: pcm_s16le, 44100 Hz, stereo, s16, 1411 kb/s (default)
21:48:26.536 22.09.2014 - [@ CLI.processInLine(73)              ] [CLI]	    Metadata:
21:48:26.537 22.09.2014 - [@ CLI.processInLine(73)              ] [CLI]	      creation_time   : 2014-03-07 16:02:14
21:48:26.538 22.09.2014 - [@ CLI.processInLine(73)              ] [CLI]	      handler_name    : IsoMedia File Produced by Google, 5-11-2011
21:48:26.539 22.09.2014 - [@ CLI.processInLine(73)              ] [CLI]	      encoder         : Lavc56.1.100 pcm_s16le
21:48:26.540 22.09.2014 - [@ CLI.processInLine(73)              ] [CLI]	Stream mapping:
21:48:26.541 22.09.2014 - [@ CLI.processInLine(73)              ] [CLI]	  Stream #0:0 -> #0:0 (h264 (native) -> rawvideo (native))
21:48:26.552 22.09.2014 - [@ CLI.processInLine(73)              ] [CLI]	  Stream #0:1 -> #0:1 (aac (native) -> pcm_s16le (native))
21:48:26.553 22.09.2014 - [@ CLI.processInLine(73)              ] [CLI]	Press [q] to stop, [?] for help
21:48:26.554 22.09.2014 - [@ CLI.processInLine(73)              ] [CLI]	[null @ 000000000492d2c0] Encoder did not produce proper pts, making some up.
21:48:26.555 22.09.2014 - [@ CLI.processInLine(73)              ] [CLI]	[silencedetect @ 000000000491f460] silence_start: -0.00154195
21:48:26.556 22.09.2014 - [@ CLI.processInLine(73)              ] [CLI]	[silencedetect @ 000000000491f460] silence_end: 1.43964 | silence_duration: 1.44118
21:48:27.021 22.09.2014 - [@ CLI.processInLine(73)              ] [CLI]	frame= 1913 fps=0.0 q=0.0 size=N/A time=00:01:16.83 bitrate=N/A    
21:48:27.522 22.09.2014 - [@ CLI.processInLine(73)              ] [CLI]	frame= 3784 fps=3781 q=0.0 size=N/A time=00:02:31.71 bitrate=N/A    
21:48:27.769 22.09.2014 - [@ CLI.processInLine(73)              ] [CLI]	[silencedetect @ 000000000491f460] silence_start: 184.736
21:48:27.803 22.09.2014 - [@ CLI.processInLine(73)              ] [CLI]	frame= 4846 fps=3780 q=0.0 Lsize=N/A time=00:03:13.84 bitrate=N/A    
21:48:27.804 22.09.2014 - [@ CLI.processInLine(73)              ] [CLI]	
21:48:27.804 22.09.2014 - [@ CLI.processInLine(73)              ] [CLI]	video:454kB audio:33392kB subtitle:0kB other streams:0kB global headers:0kB muxing overhead: unknown
21:48:28.126 22.09.2014 - [@ CLI.processInLine(73)              ] [CLI]	ffmpeg version N-66154-g1654ca7 Copyright (c) 2000-2014 the FFmpeg developers
21:48:28.127 22.09.2014 - [@ CLI.processInLine(73)              ] [CLI]	  built on Sep  5 2014 22:10:38 with gcc 4.8.3 (GCC)
21:48:28.128 22.09.2014 - [@ CLI.processInLine(73)              ] [CLI]	  configuration: --enable-gpl --enable-version3 --disable-w32threads --enable-avisynth --enable-bzlib --enable-fontconfig --enable-frei0r --enable-gnutls --enable-iconv --enable-libass --enable-libbluray --enable-libbs2b --enable-libcaca --enable-libfreetype --enable-libgme --enable-libgsm --enable-libilbc --enable-libmodplug --enable-libmp3lame --enable-libopencore-amrnb --enable-libopencore-amrwb --enable-libopenjpeg --enable-libopus --enable-librtmp --enable-libschroedinger --enable-libsoxr --enable-libspeex --enable-libtheora --enable-libtwolame --enable-libvidstab --enable-libvo-aacenc --enable-libvo-amrwbenc --enable-libvorbis --enable-libvpx --enable-libwavpack --enable-libwebp --enable-libx264 --enable-libx265 --enable-libxavs --enable-libxvid --enable-decklink --enable-zlib
21:48:28.129 22.09.2014 - [@ CLI.processInLine(73)              ] [CLI]	  libavutil      54.  7.100 / 54.  7.100
21:48:28.129 22.09.2014 - [@ CLI.processInLine(73)              ] [CLI]	  libavcodec     56.  1.100 / 56.  1.100
21:48:28.130 22.09.2014 - [@ CLI.processInLine(73)              ] [CLI]	  libavformat    56.  4.100 / 56.  4.100
21:48:28.131 22.09.2014 - [@ CLI.processInLine(73)              ] [CLI]	  libavdevice    56.  0.100 / 56.  0.100
21:48:28.131 22.09.2014 - [@ CLI.processInLine(73)              ] [CLI]	  libavfilter     5.  1.100 /  5.  1.100
21:48:28.132 22.09.2014 - [@ CLI.processInLine(73)              ] [CLI]	  libswscale      3.  0.100 /  3.  0.100
21:48:28.132 22.09.2014 - [@ CLI.processInLine(73)              ] [CLI]	  libswresample   1.  1.100 /  1.  1.100
21:48:28.133 22.09.2014 - [@ CLI.processInLine(73)              ] [CLI]	  libpostproc    53.  0.100 / 53.  0.100
21:48:28.135 22.09.2014 - [@ CLI.processInLine(73)              ] [CLI]	Input #0, mov,mp4,m4a,3gp,3g2,mj2, from 'C:\Users\Niklas\git\Advanced-Youtube-Downloader\YTDownload\temp\The Police - Roxanne.mp4':
21:48:28.136 22.09.2014 - [@ CLI.processInLine(73)              ] [CLI]	  Metadata:
21:48:28.136 22.09.2014 - [@ CLI.processInLine(73)              ] [CLI]	    major_brand     : mp42
21:48:28.137 22.09.2014 - [@ CLI.processInLine(73)              ] [CLI]	    minor_version   : 0
21:48:28.137 22.09.2014 - [@ CLI.processInLine(73)              ] [CLI]	    compatible_brands: isommp42
21:48:28.138 22.09.2014 - [@ CLI.processInLine(73)              ] [CLI]	    creation_time   : 2014-03-07 16:02:14
21:48:28.139 22.09.2014 - [@ CLI.processInLine(73)              ] [CLI]	  Duration: 00:03:13.84, start: 0.000000, bitrate: 518 kb/s
21:48:28.139 22.09.2014 - [@ CLI.processInLine(73)              ] [CLI]	    Stream #0:0(und): Video: h264 (Constrained Baseline) (avc1 / 0x31637661), yuv420p, 480x360 [SAR 1:1 DAR 4:3], 420 kb/s, 25 fps, 25 tbr, 25 tbn, 50 tbc (default)
21:48:28.140 22.09.2014 - [@ CLI.processInLine(73)              ] [CLI]	    Metadata:
21:48:28.141 22.09.2014 - [@ CLI.processInLine(73)              ] [CLI]	      handler_name    : VideoHandler
21:48:28.141 22.09.2014 - [@ CLI.processInLine(73)              ] [CLI]	    Stream #0:1(und): Audio: aac (mp4a / 0x6134706D), 44100 Hz, stereo, fltp, 95 kb/s (default)
21:48:28.142 22.09.2014 - [@ CLI.processInLine(73)              ] [CLI]	    Metadata:
21:48:28.143 22.09.2014 - [@ CLI.processInLine(73)              ] [CLI]	      creation_time   : 2014-03-07 16:02:14
21:48:28.144 22.09.2014 - [@ CLI.processInLine(73)              ] [CLI]	      handler_name    : IsoMedia File Produced by Google, 5-11-2011
21:48:28.144 22.09.2014 - [@ CLI.processInLine(73)              ] [CLI]	Output #0, null, to 'pipe:':
21:48:28.145 22.09.2014 - [@ CLI.processInLine(73)              ] [CLI]	  Metadata:
21:48:28.146 22.09.2014 - [@ CLI.processInLine(73)              ] [CLI]	    major_brand     : mp42
21:48:28.147 22.09.2014 - [@ CLI.processInLine(73)              ] [CLI]	    minor_version   : 0
21:48:28.148 22.09.2014 - [@ CLI.processInLine(73)              ] [CLI]	    compatible_brands: isommp42
21:48:28.149 22.09.2014 - [@ CLI.processInLine(73)              ] [CLI]	    encoder         : Lavf56.4.100
21:48:28.150 22.09.2014 - [@ CLI.processInLine(73)              ] [CLI]	    Stream #0:0(und): Video: rawvideo (I420 / 0x30323449), yuv420p, 480x360 [SAR 1:1 DAR 4:3], q=2-31, 200 kb/s, 25 fps, 25 tbn, 25 tbc (default)
21:48:28.151 22.09.2014 - [@ CLI.processInLine(73)              ] [CLI]	    Metadata:
21:48:28.152 22.09.2014 - [@ CLI.processInLine(73)              ] [CLI]	      handler_name    : VideoHandler
21:48:28.153 22.09.2014 - [@ CLI.processInLine(73)              ] [CLI]	      encoder         : Lavc56.1.100 rawvideo
21:48:28.154 22.09.2014 - [@ CLI.processInLine(73)              ] [CLI]	    Stream #0:1(und): Audio: pcm_s16le, 44100 Hz, stereo, s16, 1411 kb/s (default)
21:48:28.155 22.09.2014 - [@ CLI.processInLine(73)              ] [CLI]	    Metadata:
21:48:28.156 22.09.2014 - [@ CLI.processInLine(73)              ] [CLI]	      creation_time   : 2014-03-07 16:02:14
21:48:28.157 22.09.2014 - [@ CLI.processInLine(73)              ] [CLI]	      handler_name    : IsoMedia File Produced by Google, 5-11-2011
21:48:28.158 22.09.2014 - [@ CLI.processInLine(73)              ] [CLI]	      encoder         : Lavc56.1.100 pcm_s16le
21:48:28.159 22.09.2014 - [@ CLI.processInLine(73)              ] [CLI]	Stream mapping:
21:48:28.160 22.09.2014 - [@ CLI.processInLine(73)              ] [CLI]	  Stream #0:0 -> #0:0 (h264 (native) -> rawvideo (native))
21:48:28.161 22.09.2014 - [@ CLI.processInLine(73)              ] [CLI]	  Stream #0:1 -> #0:1 (aac (native) -> pcm_s16le (native))
21:48:28.162 22.09.2014 - [@ CLI.processInLine(73)              ] [CLI]	Press [q] to stop, [?] for help
21:48:28.164 22.09.2014 - [@ CLI.processInLine(73)              ] [CLI]	[null @ 000000000492cec0] Encoder did not produce proper pts, making some up.
21:48:28.641 22.09.2014 - [@ CLI.processInLine(73)              ] [CLI]	frame= 1913 fps=0.0 q=0.0 size=N/A time=00:01:16.95 bitrate=N/A    
21:48:29.142 22.09.2014 - [@ CLI.processInLine(73)              ] [CLI]	frame= 3797 fps=3794 q=0.0 size=N/A time=00:02:32.34 bitrate=N/A    
21:48:29.397 22.09.2014 - [@ CLI.processInLine(73)              ] [CLI]	frame= 4846 fps=3859 q=0.0 Lsize=N/A time=00:03:13.84 bitrate=N/A    
21:48:29.399 22.09.2014 - [@ CLI.processInLine(73)              ] [CLI]	
21:48:29.399 22.09.2014 - [@ CLI.processInLine(73)              ] [CLI]	video:454kB audio:33392kB subtitle:0kB other streams:0kB global headers:0kB muxing overhead: unknown
21:48:29.402 22.09.2014 - [@ CLI.processInLine(73)              ] [CLI]	[Parsed_volumedetect_0 @ 00000000049595a0] n_samples: 17096704
21:48:29.403 22.09.2014 - [@ CLI.processInLine(73)              ] [CLI]	[Parsed_volumedetect_0 @ 00000000049595a0] mean_volume: -25.2 dB
21:48:29.403 22.09.2014 - [@ CLI.processInLine(73)              ] [CLI]	[Parsed_volumedetect_0 @ 00000000049595a0] max_volume: -8.0 dB
21:48:29.405 22.09.2014 - [@ CLI.processInLine(73)              ] [CLI]	[Parsed_volumedetect_0 @ 00000000049595a0] histogram_7db: 1
21:48:29.405 22.09.2014 - [@ CLI.processInLine(73)              ] [CLI]	[Parsed_volumedetect_0 @ 00000000049595a0] histogram_8db: 39
21:48:29.406 22.09.2014 - [@ CLI.processInLine(73)              ] [CLI]	[Parsed_volumedetect_0 @ 00000000049595a0] histogram_9db: 563
21:48:29.406 22.09.2014 - [@ CLI.processInLine(73)              ] [CLI]	[Parsed_volumedetect_0 @ 00000000049595a0] histogram_10db: 2489
21:48:29.407 22.09.2014 - [@ CLI.processInLine(73)              ] [CLI]	[Parsed_volumedetect_0 @ 00000000049595a0] histogram_11db: 9218
21:48:29.408 22.09.2014 - [@ CLI.processInLine(73)              ] [CLI]	[Parsed_volumedetect_0 @ 00000000049595a0] histogram_12db: 25876
21:48:29.704 22.09.2014 - [@ CLI.processInLine(73)              ] [CLI]	ffmpeg version N-66154-g1654ca7 Copyright (c) 2000-2014 the FFmpeg developers
21:48:29.705 22.09.2014 - [@ CLI.processInLine(73)              ] [CLI]	  built on Sep  5 2014 22:10:38 with gcc 4.8.3 (GCC)
21:48:29.705 22.09.2014 - [@ CLI.processInLine(73)              ] [CLI]	  configuration: --enable-gpl --enable-version3 --disable-w32threads --enable-avisynth --enable-bzlib --enable-fontconfig --enable-frei0r --enable-gnutls --enable-iconv --enable-libass --enable-libbluray --enable-libbs2b --enable-libcaca --enable-libfreetype --enable-libgme --enable-libgsm --enable-libilbc --enable-libmodplug --enable-libmp3lame --enable-libopencore-amrnb --enable-libopencore-amrwb --enable-libopenjpeg --enable-libopus --enable-librtmp --enable-libschroedinger --enable-libsoxr --enable-libspeex --enable-libtheora --enable-libtwolame --enable-libvidstab --enable-libvo-aacenc --enable-libvo-amrwbenc --enable-libvorbis --enable-libvpx --enable-libwavpack --enable-libwebp --enable-libx264 --enable-libx265 --enable-libxavs --enable-libxvid --enable-decklink --enable-zlib
21:48:29.706 22.09.2014 - [@ CLI.processInLine(73)              ] [CLI]	  libavutil      54.  7.100 / 54.  7.100
21:48:29.706 22.09.2014 - [@ CLI.processInLine(73)              ] [CLI]	  libavcodec     56.  1.100 / 56.  1.100
21:48:29.707 22.09.2014 - [@ CLI.processInLine(73)              ] [CLI]	  libavformat    56.  4.100 / 56.  4.100
21:48:29.708 22.09.2014 - [@ CLI.processInLine(73)              ] [CLI]	  libavdevice    56.  0.100 / 56.  0.100
21:48:29.708 22.09.2014 - [@ CLI.processInLine(73)              ] [CLI]	  libavfilter     5.  1.100 /  5.  1.100
21:48:29.709 22.09.2014 - [@ CLI.processInLine(73)              ] [CLI]	  libswscale      3.  0.100 /  3.  0.100
21:48:29.709 22.09.2014 - [@ CLI.processInLine(73)              ] [CLI]	  libswresample   1.  1.100 /  1.  1.100
21:48:29.710 22.09.2014 - [@ CLI.processInLine(73)              ] [CLI]	  libpostproc    53.  0.100 / 53.  0.100
21:48:29.712 22.09.2014 - [@ CLI.processInLine(73)              ] [CLI]	Input #0, mov,mp4,m4a,3gp,3g2,mj2, from 'C:\Users\Niklas\git\Advanced-Youtube-Downloader\YTDownload\temp\The Police - Roxanne.mp4':
21:48:29.713 22.09.2014 - [@ CLI.processInLine(73)              ] [CLI]	  Metadata:
21:48:29.714 22.09.2014 - [@ CLI.processInLine(73)              ] [CLI]	    major_brand     : mp42
21:48:29.714 22.09.2014 - [@ CLI.processInLine(73)              ] [CLI]	    minor_version   : 0
21:48:29.715 22.09.2014 - [@ CLI.processInLine(73)              ] [CLI]	    compatible_brands: isommp42
21:48:29.716 22.09.2014 - [@ CLI.processInLine(73)              ] [CLI]	    creation_time   : 2014-03-07 16:02:14
21:48:29.716 22.09.2014 - [@ CLI.processInLine(73)              ] [CLI]	  Duration: 00:03:13.84, start: 0.000000, bitrate: 518 kb/s
21:48:29.717 22.09.2014 - [@ CLI.processInLine(73)              ] [CLI]	    Stream #0:0(und): Video: h264 (Constrained Baseline) (avc1 / 0x31637661), yuv420p, 480x360 [SAR 1:1 DAR 4:3], 420 kb/s, 25 fps, 25 tbr, 25 tbn, 50 tbc (default)
21:48:29.717 22.09.2014 - [@ CLI.processInLine(73)              ] [CLI]	    Metadata:
21:48:29.718 22.09.2014 - [@ CLI.processInLine(73)              ] [CLI]	      handler_name    : VideoHandler
21:48:29.719 22.09.2014 - [@ CLI.processInLine(73)              ] [CLI]	    Stream #0:1(und): Audio: aac (mp4a / 0x6134706D), 44100 Hz, stereo, fltp, 95 kb/s (default)
21:48:29.719 22.09.2014 - [@ CLI.processInLine(73)              ] [CLI]	    Metadata:
21:48:29.720 22.09.2014 - [@ CLI.processInLine(73)              ] [CLI]	      creation_time   : 2014-03-07 16:02:14
21:48:29.721 22.09.2014 - [@ CLI.processInLine(73)              ] [CLI]	      handler_name    : IsoMedia File Produced by Google, 5-11-2011
21:48:29.721 22.09.2014 - [@ CLI.processInLine(73)              ] [CLI]	Output #0, mp3, to 'C:\Users\Niklas\git\Advanced-Youtube-Downloader\YTDownload\temp\The Police - Roxanne.mp3':
21:48:29.722 22.09.2014 - [@ CLI.processInLine(73)              ] [CLI]	  Metadata:
21:48:29.723 22.09.2014 - [@ CLI.processInLine(73)              ] [CLI]	    major_brand     : mp42
21:48:29.724 22.09.2014 - [@ CLI.processInLine(73)              ] [CLI]	    minor_version   : 0
21:48:29.724 22.09.2014 - [@ CLI.processInLine(73)              ] [CLI]	    compatible_brands: isommp42
21:48:29.725 22.09.2014 - [@ CLI.processInLine(73)              ] [CLI]	    TSSE            : Lavf56.4.100
21:48:29.726 22.09.2014 - [@ CLI.processInLine(73)              ] [CLI]	    Stream #0:0(und): Audio: mp3 (libmp3lame), 44100 Hz, stereo, s16p, 192 kb/s (default)
21:48:29.726 22.09.2014 - [@ CLI.processInLine(73)              ] [CLI]	    Metadata:
21:48:29.727 22.09.2014 - [@ CLI.processInLine(73)              ] [CLI]	      creation_time   : 2014-03-07 16:02:14
21:48:29.727 22.09.2014 - [@ CLI.processInLine(73)              ] [CLI]	      handler_name    : IsoMedia File Produced by Google, 5-11-2011
21:48:29.728 22.09.2014 - [@ CLI.processInLine(73)              ] [CLI]	      encoder         : Lavc56.1.100 libmp3lame
21:48:29.729 22.09.2014 - [@ CLI.processInLine(73)              ] [CLI]	Stream mapping:
21:48:29.729 22.09.2014 - [@ CLI.processInLine(73)              ] [CLI]	  Stream #0:1 -> #0:0 (aac (native) -> mp3 (libmp3lame))
21:48:29.730 22.09.2014 - [@ CLI.processInLine(73)              ] [CLI]	Press [q] to stop, [?] for help
21:48:30.218 22.09.2014 - [@ CLI.processInLine(73)              ] [CLI]	size=     515kB time=00:00:21.91 bitrate= 192.5kbits/s    
21:48:30.720 22.09.2014 - [@ CLI.processInLine(73)              ] [CLI]	size=    1052kB time=00:00:44.82 bitrate= 192.2kbits/s    
21:48:31.219 22.09.2014 - [@ CLI.processInLine(73)              ] [CLI]	size=    1618kB time=00:01:08.99 bitrate= 192.2kbits/s    
21:48:31.720 22.09.2014 - [@ CLI.processInLine(73)              ] [CLI]	size=    2174kB time=00:01:32.70 bitrate= 192.1kbits/s    
21:48:32.221 22.09.2014 - [@ CLI.processInLine(73)              ] [CLI]	size=    2715kB time=00:01:55.77 bitrate= 192.1kbits/s    
21:48:32.721 22.09.2014 - [@ CLI.processInLine(73)              ] [CLI]	size=    3289kB time=00:02:20.27 bitrate= 192.1kbits/s    
21:48:33.220 22.09.2014 - [@ CLI.processInLine(73)              ] [CLI]	size=    3890kB time=00:02:45.90 bitrate= 192.1kbits/s    
21:48:33.582 22.09.2014 - [@ CLI.processInLine(73)              ] [CLI]	size=    4297kB time=00:03:03.30 bitrate= 192.1kbits/s    
21:48:33.583 22.09.2014 - [@ CLI.processInLine(73)              ] [CLI]	
21:48:33.583 22.09.2014 - [@ CLI.processInLine(73)              ] [CLI]	video:0kB audio:4297kB subtitle:0kB other streams:0kB global headers:0kB muxing overhead: 0.017341%
21:48:39.202 22.09.2014 - [@ GracenoteWebAPI.searchTrack(90)    ] [GRACE]	searching for The Police -  - Roxanne
21:48:41.006 22.09.2014 - [@ GracenoteMetadata.<init>(80)       ] [GRACE]	possible song match:	Roxanne
21:48:41.008 22.09.2014 - [@ WebImage.<init>(33)                ] [GRACE]	saving image http://akamai-b.cdn.cddbp.net/cds/2.0/cover/4058/A18E/3D27/9FD7_medium_front.jpg?cid=10483968 to thumbHTTP_1411415321007.png
21:52:16.376 22.09.2014 - [@ CLI.processInLine(73)              ] [CLI]	Iron Maiden - Wasted Years
21:52:16.384 22.09.2014 - [@ CLI.processInLine(73)              ] [CLI]	https://i.ytimg.com/vi/cOVzXYEU3Bk/hqdefault.jpg
21:52:16.385 22.09.2014 - [@ CLI.processInLine(73)              ] [CLI]	Music video by Iron Maiden performing Wasted Years. Taken from the album 'Somewhere In Time'
21:52:16.386 22.09.2014 - [@ CLI.processInLine(73)              ] [CLI]	
21:52:16.387 22.09.2014 - [@ CLI.processInLine(73)              ] [CLI]	Buy Iron Maiden's greatest albums on iTunes here: http://smarturl.it/ironmaidenitunes
21:52:16.388 22.09.2014 - [@ CLI.processInLine(73)              ] [CLI]	Listen to this track on Spotify: http://smarturl.it/qyo70k
21:52:16.388 22.09.2014 - [@ CLI.processInLine(73)              ] [CLI]	Buy the album on Amazon: http://smarturl.it/tl2q91
21:52:16.877 22.09.2014 - [@ CLI.processInLine(73)              ] [CLI]	[youtube] Setting language
21:52:17.905 22.09.2014 - [@ CLI.processInLine(73)              ] [CLI]	[youtube] cOVzXYEU3Bk: Downloading webpage
21:52:18.151 22.09.2014 - [@ CLI.processInLine(73)              ] [CLI]	[youtube] cOVzXYEU3Bk: Downloading video info webpage
21:52:18.480 22.09.2014 - [@ CLI.processInLine(73)              ] [CLI]	[youtube] cOVzXYEU3Bk: Extracting video information
21:52:18.600 22.09.2014 - [@ CLI.processInLine(73)              ] [CLI]	[youtube] cOVzXYEU3Bk: Encrypted signatures detected.
21:52:18.698 22.09.2014 - [@ CLI.processInLine(73)              ] [CLI]	[info] Available formats for cOVzXYEU3Bk:
21:52:18.699 22.09.2014 - [@ CLI.processInLine(73)              ] [CLI]	format code extension resolution  note 
21:52:18.701 22.09.2014 - [@ CLI.processInLine(73)              ] [CLI]	171         webm      audio only  DASH audio , audio@128k (worst)
21:52:18.702 22.09.2014 - [@ CLI.processInLine(73)              ] [CLI]	140         m4a       audio only  DASH audio , audio@128k
21:52:18.703 22.09.2014 - [@ CLI.processInLine(73)              ] [CLI]	160         mp4       144p        DASH video , video only
21:52:18.704 22.09.2014 - [@ CLI.processInLine(73)              ] [CLI]	242         webm      240p        DASH video , video only
21:52:18.705 22.09.2014 - [@ CLI.processInLine(73)              ] [CLI]	133         mp4       240p        DASH video , video only
21:52:18.707 22.09.2014 - [@ CLI.processInLine(73)              ] [CLI]	243         webm      360p        DASH video , video only
21:52:18.708 22.09.2014 - [@ CLI.processInLine(73)              ] [CLI]	134         mp4       360p        DASH video , video only
21:52:18.709 22.09.2014 - [@ CLI.processInLine(73)              ] [CLI]	244         webm      480p        DASH video , video only
21:52:18.711 22.09.2014 - [@ CLI.processInLine(73)              ] [CLI]	245         webm      480p        DASH video , video only
21:52:18.712 22.09.2014 - [@ CLI.processInLine(73)              ] [CLI]	246         webm      480p        DASH video , video only
21:52:18.713 22.09.2014 - [@ CLI.processInLine(73)              ] [CLI]	135         mp4       480p        DASH video , video only
21:52:18.715 22.09.2014 - [@ CLI.processInLine(73)              ] [CLI]	17          3gp       176x144     
21:52:18.716 22.09.2014 - [@ CLI.processInLine(73)              ] [CLI]	36          3gp       320x240     
21:52:18.717 22.09.2014 - [@ CLI.processInLine(73)              ] [CLI]	5           flv       400x240     
21:52:18.718 22.09.2014 - [@ CLI.processInLine(73)              ] [CLI]	43          webm      640x360     
21:52:18.720 22.09.2014 - [@ CLI.processInLine(73)              ] [CLI]	18          mp4       640x360     (best)
21:52:19.198 22.09.2014 - [@ CLI.processInLine(73)              ] [CLI]	[youtube] Setting language
21:52:20.350 22.09.2014 - [@ CLI.processInLine(73)              ] [CLI]	[youtube] cOVzXYEU3Bk: Downloading webpage
21:52:20.665 22.09.2014 - [@ CLI.processInLine(73)              ] [CLI]	[youtube] cOVzXYEU3Bk: Downloading video info webpage
21:52:21.065 22.09.2014 - [@ CLI.processInLine(73)              ] [CLI]	[youtube] cOVzXYEU3Bk: Extracting video information
21:52:21.183 22.09.2014 - [@ CLI.processInLine(73)              ] [CLI]	[youtube] cOVzXYEU3Bk: Encrypted signatures detected.
21:52:21.280 22.09.2014 - [@ CLI.processInLine(73)              ] [CLI]	[download] Destination: C:\Users\Niklas\git\Advanced-Youtube-Downloader\YTDownload\temp\Iron Maiden - Wasted Years.mp4
21:52:21.282 22.09.2014 - [@ CLI.processInLine(73)              ] [CLI]	
21:52:21.290 22.09.2014 - [@ CLI.processInLine(73)              ] [CLI]	[download]   0.0% of 19.93MiB at     ---b/s ETA Unknown ETA
21:52:21.291 22.09.2014 - [@ CLI.processInLine(73)              ] [CLI]	[download]   0.0% of 19.93MiB at 300.00KiB/s ETA 01:08     
21:52:21.292 22.09.2014 - [@ CLI.processInLine(73)              ] [CLI]	[download]   0.0% of 19.93MiB at 700.00KiB/s ETA 00:29     
21:52:21.294 22.09.2014 - [@ CLI.processInLine(73)              ] [CLI]	[download]   0.1% of 19.93MiB at  1.33MiB/s ETA 00:14      
21:52:21.307 22.09.2014 - [@ CLI.processInLine(73)              ] [CLI]	[download]   0.2% of 19.93MiB at  2.16MiB/s ETA 00:09      
21:52:21.342 22.09.2014 - [@ CLI.processInLine(73)              ] [CLI]	[download]   0.3% of 19.93MiB at  2.28MiB/s ETA 00:08      
21:52:21.376 22.09.2014 - [@ CLI.processInLine(73)              ] [CLI]	[download]   0.6% of 19.93MiB at  2.00MiB/s ETA 00:09      
21:52:21.416 22.09.2014 - [@ CLI.processInLine(73)              ] [CLI]	[download]   1.2% of 19.93MiB at  2.57MiB/s ETA 00:07      
21:52:21.533 22.09.2014 - [@ CLI.processInLine(73)              ] [CLI]	[download]   2.5% of 19.93MiB at  3.67MiB/s ETA 00:05      
21:52:22.127 22.09.2014 - [@ CLI.processInLine(73)              ] [CLI]	[download]   5.0% of 19.93MiB at  3.93MiB/s ETA 00:04      
21:52:22.834 22.09.2014 - [@ CLI.processInLine(73)              ] [CLI]	[download]  10.0% of 19.93MiB at  2.36MiB/s ETA 00:07      
21:52:24.591 22.09.2014 - [@ CLI.processInLine(73)              ] [CLI]	[download]  18.5% of 19.93MiB at  2.37MiB/s ETA 00:06      
21:52:25.303 22.09.2014 - [@ CLI.processInLine(73)              ] [CLI]	[download]  30.5% of 19.93MiB at  1.83MiB/s ETA 00:07      
21:52:25.731 22.09.2014 - [@ CLI.processInLine(73)              ] [CLI]	[download]  37.3% of 19.93MiB at  1.85MiB/s ETA 00:06      
21:52:26.531 22.09.2014 - [@ CLI.processInLine(73)              ] [CLI]	[download]  46.9% of 19.93MiB at  2.10MiB/s ETA 00:05      
21:52:27.607 22.09.2014 - [@ CLI.processInLine(73)              ] [CLI]	[download]  66.0% of 19.93MiB at  2.50MiB/s ETA 00:02      
21:52:28.442 22.09.2014 - [@ CLI.processInLine(73)              ] [CLI]	[download]  86.1% of 19.93MiB at  2.71MiB/s ETA 00:01      
21:52:28.444 22.09.2014 - [@ CLI.processInLine(73)              ] [CLI]	[download] 100.0% of 19.93MiB at  2.78MiB/s ETA 00:00      
21:52:28.445 22.09.2014 - [@ CLI.processInLine(73)              ] [CLI]	[download] 100% of 19.93MiB in 00:07                       
21:52:28.755 22.09.2014 - [@ CLI.processInLine(73)              ] [CLI]	ffmpeg version N-66154-g1654ca7 Copyright (c) 2000-2014 the FFmpeg developers
21:52:28.757 22.09.2014 - [@ CLI.processInLine(73)              ] [CLI]	  built on Sep  5 2014 22:10:38 with gcc 4.8.3 (GCC)
21:52:28.757 22.09.2014 - [@ CLI.processInLine(73)              ] [CLI]	  configuration: --enable-gpl --enable-version3 --disable-w32threads --enable-avisynth --enable-bzlib --enable-fontconfig --enable-frei0r --enable-gnutls --enable-iconv --enable-libass --enable-libbluray --enable-libbs2b --enable-libcaca --enable-libfreetype --enable-libgme --enable-libgsm --enable-libilbc --enable-libmodplug --enable-libmp3lame --enable-libopencore-amrnb --enable-libopencore-amrwb --enable-libopenjpeg --enable-libopus --enable-librtmp --enable-libschroedinger --enable-libsoxr --enable-libspeex --enable-libtheora --enable-libtwolame --enable-libvidstab --enable-libvo-aacenc --enable-libvo-amrwbenc --enable-libvorbis --enable-libvpx --enable-libwavpack --enable-libwebp --enable-libx264 --enable-libx265 --enable-libxavs --enable-libxvid --enable-decklink --enable-zlib
21:52:28.758 22.09.2014 - [@ CLI.processInLine(73)              ] [CLI]	  libavutil      54.  7.100 / 54.  7.100
21:52:28.759 22.09.2014 - [@ CLI.processInLine(73)              ] [CLI]	  libavcodec     56.  1.100 / 56.  1.100
21:52:28.759 22.09.2014 - [@ CLI.processInLine(73)              ] [CLI]	  libavformat    56.  4.100 / 56.  4.100
21:52:28.760 22.09.2014 - [@ CLI.processInLine(73)              ] [CLI]	  libavdevice    56.  0.100 / 56.  0.100
21:52:28.761 22.09.2014 - [@ CLI.processInLine(73)              ] [CLI]	  libavfilter     5.  1.100 /  5.  1.100
21:52:28.762 22.09.2014 - [@ CLI.processInLine(73)              ] [CLI]	  libswscale      3.  0.100 /  3.  0.100
21:52:28.763 22.09.2014 - [@ CLI.processInLine(73)              ] [CLI]	  libswresample   1.  1.100 /  1.  1.100
21:52:28.764 22.09.2014 - [@ CLI.processInLine(73)              ] [CLI]	  libpostproc    53.  0.100 / 53.  0.100
21:52:28.766 22.09.2014 - [@ CLI.processInLine(73)              ] [CLI]	Input #0, mov,mp4,m4a,3gp,3g2,mj2, from 'C:\Users\Niklas\git\Advanced-Youtube-Downloader\YTDownload\temp\Iron Maiden - Wasted Years.mp4':
21:52:28.767 22.09.2014 - [@ CLI.processInLine(73)              ] [CLI]	  Metadata:
21:52:28.768 22.09.2014 - [@ CLI.processInLine(73)              ] [CLI]	    major_brand     : mp42
21:52:28.769 22.09.2014 - [@ CLI.processInLine(73)              ] [CLI]	    minor_version   : 0
21:52:28.770 22.09.2014 - [@ CLI.processInLine(73)              ] [CLI]	    compatible_brands: isommp42
21:52:28.771 22.09.2014 - [@ CLI.processInLine(73)              ] [CLI]	    creation_time   : 2014-03-07 15:57:33
21:52:28.772 22.09.2014 - [@ CLI.processInLine(73)              ] [CLI]	  Duration: 00:04:59.77, start: 0.000000, bitrate: 557 kb/s
21:52:28.773 22.09.2014 - [@ CLI.processInLine(73)              ] [CLI]	    Stream #0:0(und): Video: h264 (Constrained Baseline) (avc1 / 0x31637661), yuv420p, 480x360 [SAR 1:1 DAR 4:3], 459 kb/s, 25 fps, 25 tbr, 25 tbn, 50 tbc (default)
21:52:28.773 22.09.2014 - [@ CLI.processInLine(73)              ] [CLI]	    Metadata:
21:52:28.774 22.09.2014 - [@ CLI.processInLine(73)              ] [CLI]	      handler_name    : VideoHandler
21:52:28.775 22.09.2014 - [@ CLI.processInLine(73)              ] [CLI]	    Stream #0:1(und): Audio: aac (mp4a / 0x6134706D), 44100 Hz, stereo, fltp, 96 kb/s (default)
21:52:28.775 22.09.2014 - [@ CLI.processInLine(73)              ] [CLI]	    Metadata:
21:52:28.776 22.09.2014 - [@ CLI.processInLine(73)              ] [CLI]	      creation_time   : 2014-03-07 15:57:34
21:52:28.779 22.09.2014 - [@ CLI.processInLine(73)              ] [CLI]	      handler_name    : IsoMedia File Produced by Google, 5-11-2011
21:52:28.780 22.09.2014 - [@ CLI.processInLine(73)              ] [CLI]	Output #0, null, to 'pipe:':
21:52:28.781 22.09.2014 - [@ CLI.processInLine(73)              ] [CLI]	  Metadata:
21:52:28.782 22.09.2014 - [@ CLI.processInLine(73)              ] [CLI]	    major_brand     : mp42
21:52:28.783 22.09.2014 - [@ CLI.processInLine(73)              ] [CLI]	    minor_version   : 0
21:52:28.784 22.09.2014 - [@ CLI.processInLine(73)              ] [CLI]	    compatible_brands: isommp42
21:52:28.785 22.09.2014 - [@ CLI.processInLine(73)              ] [CLI]	    encoder         : Lavf56.4.100
21:52:28.787 22.09.2014 - [@ CLI.processInLine(73)              ] [CLI]	    Stream #0:0(und): Video: rawvideo (I420 / 0x30323449), yuv420p, 480x360 [SAR 1:1 DAR 4:3], q=2-31, 200 kb/s, 25 fps, 25 tbn, 25 tbc (default)
21:52:28.788 22.09.2014 - [@ CLI.processInLine(73)              ] [CLI]	    Metadata:
21:52:28.789 22.09.2014 - [@ CLI.processInLine(73)              ] [CLI]	      handler_name    : VideoHandler
21:52:28.790 22.09.2014 - [@ CLI.processInLine(73)              ] [CLI]	      encoder         : Lavc56.1.100 rawvideo
21:52:28.791 22.09.2014 - [@ CLI.processInLine(73)              ] [CLI]	    Stream #0:1(und): Audio: pcm_s16le, 44100 Hz, stereo, s16, 1411 kb/s (default)
21:52:28.792 22.09.2014 - [@ CLI.processInLine(73)              ] [CLI]	    Metadata:
21:52:28.793 22.09.2014 - [@ CLI.processInLine(73)              ] [CLI]	      creation_time   : 2014-03-07 15:57:34
21:52:28.795 22.09.2014 - [@ CLI.processInLine(73)              ] [CLI]	      handler_name    : IsoMedia File Produced by Google, 5-11-2011
21:52:28.796 22.09.2014 - [@ CLI.processInLine(73)              ] [CLI]	      encoder         : Lavc56.1.100 pcm_s16le
21:52:28.797 22.09.2014 - [@ CLI.processInLine(73)              ] [CLI]	Stream mapping:
21:52:28.798 22.09.2014 - [@ CLI.processInLine(73)              ] [CLI]	  Stream #0:0 -> #0:0 (h264 (native) -> rawvideo (native))
21:52:28.799 22.09.2014 - [@ CLI.processInLine(73)              ] [CLI]	  Stream #0:1 -> #0:1 (aac (native) -> pcm_s16le (native))
21:52:28.800 22.09.2014 - [@ CLI.processInLine(73)              ] [CLI]	Press [q] to stop, [?] for help
21:52:28.801 22.09.2014 - [@ CLI.processInLine(73)              ] [CLI]	[null @ 000000000492b440] Encoder did not produce proper pts, making some up.
21:52:29.275 22.09.2014 - [@ CLI.processInLine(73)              ] [CLI]	frame= 1949 fps=0.0 q=0.0 size=N/A time=00:01:18.73 bitrate=N/A    
21:52:29.776 22.09.2014 - [@ CLI.processInLine(73)              ] [CLI]	frame= 3900 fps=3897 q=0.0 size=N/A time=00:02:36.52 bitrate=N/A    
21:52:30.275 22.09.2014 - [@ CLI.processInLine(73)              ] [CLI]	frame= 5816 fps=3875 q=0.0 size=N/A time=00:03:53.31 bitrate=N/A    
21:52:30.702 22.09.2014 - [@ CLI.processInLine(73)              ] [CLI]	frame= 7494 fps=3890 q=0.0 Lsize=N/A time=00:04:59.76 bitrate=N/A    
21:52:30.703 22.09.2014 - [@ CLI.processInLine(73)              ] [CLI]	
21:52:30.703 22.09.2014 - [@ CLI.processInLine(73)              ] [CLI]	video:703kB audio:51640kB subtitle:0kB other streams:0kB global headers:0kB muxing overhead: unknown
21:52:31.006 22.09.2014 - [@ CLI.processInLine(73)              ] [CLI]	ffmpeg version N-66154-g1654ca7 Copyright (c) 2000-2014 the FFmpeg developers
21:52:31.007 22.09.2014 - [@ CLI.processInLine(73)              ] [CLI]	  built on Sep  5 2014 22:10:38 with gcc 4.8.3 (GCC)
21:52:31.008 22.09.2014 - [@ CLI.processInLine(73)              ] [CLI]	  configuration: --enable-gpl --enable-version3 --disable-w32threads --enable-avisynth --enable-bzlib --enable-fontconfig --enable-frei0r --enable-gnutls --enable-iconv --enable-libass --enable-libbluray --enable-libbs2b --enable-libcaca --enable-libfreetype --enable-libgme --enable-libgsm --enable-libilbc --enable-libmodplug --enable-libmp3lame --enable-libopencore-amrnb --enable-libopencore-amrwb --enable-libopenjpeg --enable-libopus --enable-librtmp --enable-libschroedinger --enable-libsoxr --enable-libspeex --enable-libtheora --enable-libtwolame --enable-libvidstab --enable-libvo-aacenc --enable-libvo-amrwbenc --enable-libvorbis --enable-libvpx --enable-libwavpack --enable-libwebp --enable-libx264 --enable-libx265 --enable-libxavs --enable-libxvid --enable-decklink --enable-zlib
21:52:31.008 22.09.2014 - [@ CLI.processInLine(73)              ] [CLI]	  libavutil      54.  7.100 / 54.  7.100
21:52:31.009 22.09.2014 - [@ CLI.processInLine(73)              ] [CLI]	  libavcodec     56.  1.100 / 56.  1.100
21:52:31.010 22.09.2014 - [@ CLI.processInLine(73)              ] [CLI]	  libavformat    56.  4.100 / 56.  4.100
21:52:31.010 22.09.2014 - [@ CLI.processInLine(73)              ] [CLI]	  libavdevice    56.  0.100 / 56.  0.100
21:52:31.011 22.09.2014 - [@ CLI.processInLine(73)              ] [CLI]	  libavfilter     5.  1.100 /  5.  1.100
21:52:31.011 22.09.2014 - [@ CLI.processInLine(73)              ] [CLI]	  libswscale      3.  0.100 /  3.  0.100
21:52:31.012 22.09.2014 - [@ CLI.processInLine(73)              ] [CLI]	  libswresample   1.  1.100 /  1.  1.100
21:52:31.013 22.09.2014 - [@ CLI.processInLine(73)              ] [CLI]	  libpostproc    53.  0.100 / 53.  0.100
21:52:31.018 22.09.2014 - [@ CLI.processInLine(73)              ] [CLI]	Input #0, mov,mp4,m4a,3gp,3g2,mj2, from 'C:\Users\Niklas\git\Advanced-Youtube-Downloader\YTDownload\temp\Iron Maiden - Wasted Years.mp4':
21:52:31.019 22.09.2014 - [@ CLI.processInLine(73)              ] [CLI]	  Metadata:
21:52:31.019 22.09.2014 - [@ CLI.processInLine(73)              ] [CLI]	    major_brand     : mp42
21:52:31.020 22.09.2014 - [@ CLI.processInLine(73)              ] [CLI]	    minor_version   : 0
21:52:31.021 22.09.2014 - [@ CLI.processInLine(73)              ] [CLI]	    compatible_brands: isommp42
21:52:31.021 22.09.2014 - [@ CLI.processInLine(73)              ] [CLI]	    creation_time   : 2014-03-07 15:57:33
21:52:31.022 22.09.2014 - [@ CLI.processInLine(73)              ] [CLI]	  Duration: 00:04:59.77, start: 0.000000, bitrate: 557 kb/s
21:52:31.023 22.09.2014 - [@ CLI.processInLine(73)              ] [CLI]	    Stream #0:0(und): Video: h264 (Constrained Baseline) (avc1 / 0x31637661), yuv420p, 480x360 [SAR 1:1 DAR 4:3], 459 kb/s, 25 fps, 25 tbr, 25 tbn, 50 tbc (default)
21:52:31.024 22.09.2014 - [@ CLI.processInLine(73)              ] [CLI]	    Metadata:
21:52:31.024 22.09.2014 - [@ CLI.processInLine(73)              ] [CLI]	      handler_name    : VideoHandler
21:52:31.025 22.09.2014 - [@ CLI.processInLine(73)              ] [CLI]	    Stream #0:1(und): Audio: aac (mp4a / 0x6134706D), 44100 Hz, stereo, fltp, 96 kb/s (default)
21:52:31.026 22.09.2014 - [@ CLI.processInLine(73)              ] [CLI]	    Metadata:
21:52:31.027 22.09.2014 - [@ CLI.processInLine(73)              ] [CLI]	      creation_time   : 2014-03-07 15:57:34
21:52:31.028 22.09.2014 - [@ CLI.processInLine(73)              ] [CLI]	      handler_name    : IsoMedia File Produced by Google, 5-11-2011
21:52:31.030 22.09.2014 - [@ CLI.processInLine(73)              ] [CLI]	Output #0, null, to 'pipe:':
21:52:31.031 22.09.2014 - [@ CLI.processInLine(73)              ] [CLI]	  Metadata:
21:52:31.032 22.09.2014 - [@ CLI.processInLine(73)              ] [CLI]	    major_brand     : mp42
21:52:31.033 22.09.2014 - [@ CLI.processInLine(73)              ] [CLI]	    minor_version   : 0
21:52:31.034 22.09.2014 - [@ CLI.processInLine(73)              ] [CLI]	    compatible_brands: isommp42
21:52:31.035 22.09.2014 - [@ CLI.processInLine(73)              ] [CLI]	    encoder         : Lavf56.4.100
21:52:31.036 22.09.2014 - [@ CLI.processInLine(73)              ] [CLI]	    Stream #0:0(und): Video: rawvideo (I420 / 0x30323449), yuv420p, 480x360 [SAR 1:1 DAR 4:3], q=2-31, 200 kb/s, 25 fps, 25 tbn, 25 tbc (default)
21:52:31.037 22.09.2014 - [@ CLI.processInLine(73)              ] [CLI]	    Metadata:
21:52:31.038 22.09.2014 - [@ CLI.processInLine(73)              ] [CLI]	      handler_name    : VideoHandler
21:52:31.039 22.09.2014 - [@ CLI.processInLine(73)              ] [CLI]	      encoder         : Lavc56.1.100 rawvideo
21:52:31.040 22.09.2014 - [@ CLI.processInLine(73)              ] [CLI]	    Stream #0:1(und): Audio: pcm_s16le, 44100 Hz, stereo, s16, 1411 kb/s (default)
21:52:31.041 22.09.2014 - [@ CLI.processInLine(73)              ] [CLI]	    Metadata:
21:52:31.042 22.09.2014 - [@ CLI.processInLine(73)              ] [CLI]	      creation_time   : 2014-03-07 15:57:34
21:52:31.043 22.09.2014 - [@ CLI.processInLine(73)              ] [CLI]	      handler_name    : IsoMedia File Produced by Google, 5-11-2011
21:52:31.044 22.09.2014 - [@ CLI.processInLine(73)              ] [CLI]	      encoder         : Lavc56.1.100 pcm_s16le
21:52:31.046 22.09.2014 - [@ CLI.processInLine(73)              ] [CLI]	Stream mapping:
21:52:31.046 22.09.2014 - [@ CLI.processInLine(73)              ] [CLI]	  Stream #0:0 -> #0:0 (h264 (native) -> rawvideo (native))
21:52:31.048 22.09.2014 - [@ CLI.processInLine(73)              ] [CLI]	  Stream #0:1 -> #0:1 (aac (native) -> pcm_s16le (native))
21:52:31.049 22.09.2014 - [@ CLI.processInLine(73)              ] [CLI]	Press [q] to stop, [?] for help
21:52:31.050 22.09.2014 - [@ CLI.processInLine(73)              ] [CLI]	[null @ 000000000496bd20] Encoder did not produce proper pts, making some up.
21:52:31.524 22.09.2014 - [@ CLI.processInLine(73)              ] [CLI]	frame= 1877 fps=0.0 q=0.0 size=N/A time=00:01:15.58 bitrate=N/A    
21:52:32.025 22.09.2014 - [@ CLI.processInLine(73)              ] [CLI]	frame= 3821 fps=3818 q=0.0 size=N/A time=00:02:33.43 bitrate=N/A    
21:52:32.525 22.09.2014 - [@ CLI.processInLine(73)              ] [CLI]	frame= 5753 fps=3833 q=0.0 size=N/A time=00:03:50.45 bitrate=N/A    
21:52:32.982 22.09.2014 - [@ CLI.processInLine(73)              ] [CLI]	frame= 7494 fps=3827 q=0.0 Lsize=N/A time=00:04:59.76 bitrate=N/A    
21:52:32.983 22.09.2014 - [@ CLI.processInLine(73)              ] [CLI]	
21:52:32.984 22.09.2014 - [@ CLI.processInLine(73)              ] [CLI]	video:703kB audio:51640kB subtitle:0kB other streams:0kB global headers:0kB muxing overhead: unknown
21:52:32.987 22.09.2014 - [@ CLI.processInLine(73)              ] [CLI]	[Parsed_volumedetect_0 @ 0000000004f846a0] n_samples: 26439680
21:52:32.987 22.09.2014 - [@ CLI.processInLine(73)              ] [CLI]	[Parsed_volumedetect_0 @ 0000000004f846a0] mean_volume: -21.3 dB
21:52:32.988 22.09.2014 - [@ CLI.processInLine(73)              ] [CLI]	[Parsed_volumedetect_0 @ 0000000004f846a0] max_volume: -6.1 dB
21:52:32.990 22.09.2014 - [@ CLI.processInLine(73)              ] [CLI]	[Parsed_volumedetect_0 @ 0000000004f846a0] histogram_6db: 33
21:52:32.991 22.09.2014 - [@ CLI.processInLine(73)              ] [CLI]	[Parsed_volumedetect_0 @ 0000000004f846a0] histogram_7db: 380
21:52:32.991 22.09.2014 - [@ CLI.processInLine(73)              ] [CLI]	[Parsed_volumedetect_0 @ 0000000004f846a0] histogram_8db: 2413
21:52:32.992 22.09.2014 - [@ CLI.processInLine(73)              ] [CLI]	[Parsed_volumedetect_0 @ 0000000004f846a0] histogram_9db: 9884
21:52:32.993 22.09.2014 - [@ CLI.processInLine(73)              ] [CLI]	[Parsed_volumedetect_0 @ 0000000004f846a0] histogram_10db: 31580
21:52:33.283 22.09.2014 - [@ CLI.processInLine(73)              ] [CLI]	ffmpeg version N-66154-g1654ca7 Copyright (c) 2000-2014 the FFmpeg developers
21:52:33.284 22.09.2014 - [@ CLI.processInLine(73)              ] [CLI]	  built on Sep  5 2014 22:10:38 with gcc 4.8.3 (GCC)
21:52:33.285 22.09.2014 - [@ CLI.processInLine(73)              ] [CLI]	  configuration: --enable-gpl --enable-version3 --disable-w32threads --enable-avisynth --enable-bzlib --enable-fontconfig --enable-frei0r --enable-gnutls --enable-iconv --enable-libass --enable-libbluray --enable-libbs2b --enable-libcaca --enable-libfreetype --enable-libgme --enable-libgsm --enable-libilbc --enable-libmodplug --enable-libmp3lame --enable-libopencore-amrnb --enable-libopencore-amrwb --enable-libopenjpeg --enable-libopus --enable-librtmp --enable-libschroedinger --enable-libsoxr --enable-libspeex --enable-libtheora --enable-libtwolame --enable-libvidstab --enable-libvo-aacenc --enable-libvo-amrwbenc --enable-libvorbis --enable-libvpx --enable-libwavpack --enable-libwebp --enable-libx264 --enable-libx265 --enable-libxavs --enable-libxvid --enable-decklink --enable-zlib
21:52:33.285 22.09.2014 - [@ CLI.processInLine(73)              ] [CLI]	  libavutil      54.  7.100 / 54.  7.100
21:52:33.286 22.09.2014 - [@ CLI.processInLine(73)              ] [CLI]	  libavcodec     56.  1.100 / 56.  1.100
21:52:33.286 22.09.2014 - [@ CLI.processInLine(73)              ] [CLI]	  libavformat    56.  4.100 / 56.  4.100
21:52:33.287 22.09.2014 - [@ CLI.processInLine(73)              ] [CLI]	  libavdevice    56.  0.100 / 56.  0.100
21:52:33.288 22.09.2014 - [@ CLI.processInLine(73)              ] [CLI]	  libavfilter     5.  1.100 /  5.  1.100
21:52:33.288 22.09.2014 - [@ CLI.processInLine(73)              ] [CLI]	  libswscale      3.  0.100 /  3.  0.100
21:52:33.289 22.09.2014 - [@ CLI.processInLine(73)              ] [CLI]	  libswresample   1.  1.100 /  1.  1.100
21:52:33.289 22.09.2014 - [@ CLI.processInLine(73)              ] [CLI]	  libpostproc    53.  0.100 / 53.  0.100
21:52:33.294 22.09.2014 - [@ CLI.processInLine(73)              ] [CLI]	Input #0, mov,mp4,m4a,3gp,3g2,mj2, from 'C:\Users\Niklas\git\Advanced-Youtube-Downloader\YTDownload\temp\Iron Maiden - Wasted Years.mp4':
21:52:33.296 22.09.2014 - [@ CLI.processInLine(73)              ] [CLI]	  Metadata:
21:52:33.296 22.09.2014 - [@ CLI.processInLine(73)              ] [CLI]	    major_brand     : mp42
21:52:33.297 22.09.2014 - [@ CLI.processInLine(73)              ] [CLI]	    minor_version   : 0
21:52:33.297 22.09.2014 - [@ CLI.processInLine(73)              ] [CLI]	    compatible_brands: isommp42
21:52:33.298 22.09.2014 - [@ CLI.processInLine(73)              ] [CLI]	    creation_time   : 2014-03-07 15:57:33
21:52:33.299 22.09.2014 - [@ CLI.processInLine(73)              ] [CLI]	  Duration: 00:04:59.77, start: 0.000000, bitrate: 557 kb/s
21:52:33.300 22.09.2014 - [@ CLI.processInLine(73)              ] [CLI]	    Stream #0:0(und): Video: h264 (Constrained Baseline) (avc1 / 0x31637661), yuv420p, 480x360 [SAR 1:1 DAR 4:3], 459 kb/s, 25 fps, 25 tbr, 25 tbn, 50 tbc (default)
21:52:33.300 22.09.2014 - [@ CLI.processInLine(73)              ] [CLI]	    Metadata:
21:52:33.301 22.09.2014 - [@ CLI.processInLine(73)              ] [CLI]	      handler_name    : VideoHandler
21:52:33.301 22.09.2014 - [@ CLI.processInLine(73)              ] [CLI]	    Stream #0:1(und): Audio: aac (mp4a / 0x6134706D), 44100 Hz, stereo, fltp, 96 kb/s (default)
21:52:33.302 22.09.2014 - [@ CLI.processInLine(73)              ] [CLI]	    Metadata:
21:52:33.302 22.09.2014 - [@ CLI.processInLine(73)              ] [CLI]	      creation_time   : 2014-03-07 15:57:34
21:52:33.303 22.09.2014 - [@ CLI.processInLine(73)              ] [CLI]	      handler_name    : IsoMedia File Produced by Google, 5-11-2011
21:52:33.303 22.09.2014 - [@ CLI.processInLine(73)              ] [CLI]	Output #0, mp3, to 'C:\Users\Niklas\git\Advanced-Youtube-Downloader\YTDownload\temp\Iron Maiden - Wasted Years.mp3':
21:52:33.304 22.09.2014 - [@ CLI.processInLine(73)              ] [CLI]	  Metadata:
21:52:33.305 22.09.2014 - [@ CLI.processInLine(73)              ] [CLI]	    major_brand     : mp42
21:52:33.305 22.09.2014 - [@ CLI.processInLine(73)              ] [CLI]	    minor_version   : 0
21:52:33.306 22.09.2014 - [@ CLI.processInLine(73)              ] [CLI]	    compatible_brands: isommp42
21:52:33.306 22.09.2014 - [@ CLI.processInLine(73)              ] [CLI]	    TSSE            : Lavf56.4.100
21:52:33.307 22.09.2014 - [@ CLI.processInLine(73)              ] [CLI]	    Stream #0:0(und): Audio: mp3 (libmp3lame), 44100 Hz, stereo, s16p, 192 kb/s (default)
21:52:33.307 22.09.2014 - [@ CLI.processInLine(73)              ] [CLI]	    Metadata:
21:52:33.308 22.09.2014 - [@ CLI.processInLine(73)              ] [CLI]	      creation_time   : 2014-03-07 15:57:34
21:52:33.308 22.09.2014 - [@ CLI.processInLine(73)              ] [CLI]	      handler_name    : IsoMedia File Produced by Google, 5-11-2011
21:52:33.309 22.09.2014 - [@ CLI.processInLine(73)              ] [CLI]	      encoder         : Lavc56.1.100 libmp3lame
21:52:33.310 22.09.2014 - [@ CLI.processInLine(73)              ] [CLI]	Stream mapping:
21:52:33.311 22.09.2014 - [@ CLI.processInLine(73)              ] [CLI]	  Stream #0:1 -> #0:0 (aac (native) -> mp3 (libmp3lame))
21:52:33.312 22.09.2014 - [@ CLI.processInLine(73)              ] [CLI]	Press [q] to stop, [?] for help
21:52:33.802 22.09.2014 - [@ CLI.processInLine(73)              ] [CLI]	size=     512kB time=00:00:21.78 bitrate= 192.5kbits/s    
21:52:34.302 22.09.2014 - [@ CLI.processInLine(73)              ] [CLI]	size=    1043kB time=00:00:44.43 bitrate= 192.2kbits/s    
21:52:34.803 22.09.2014 - [@ CLI.processInLine(73)              ] [CLI]	size=    1572kB time=00:01:07.00 bitrate= 192.2kbits/s    
21:52:35.303 22.09.2014 - [@ CLI.processInLine(73)              ] [CLI]	size=    2081kB time=00:01:28.73 bitrate= 192.1kbits/s    
21:52:35.804 22.09.2014 - [@ CLI.processInLine(73)              ] [CLI]	size=    2599kB time=00:01:50.83 bitrate= 192.1kbits/s    
21:52:36.304 22.09.2014 - [@ CLI.processInLine(73)              ] [CLI]	size=    3122kB time=00:02:13.14 bitrate= 192.1kbits/s    
21:52:36.804 22.09.2014 - [@ CLI.processInLine(73)              ] [CLI]	size=    3639kB time=00:02:35.19 bitrate= 192.1kbits/s    
21:52:37.304 22.09.2014 - [@ CLI.processInLine(73)              ] [CLI]	size=    4155kB time=00:02:57.21 bitrate= 192.1kbits/s    
21:52:37.805 22.09.2014 - [@ CLI.processInLine(73)              ] [CLI]	size=    4668kB time=00:03:19.13 bitrate= 192.1kbits/s    
21:52:38.306 22.09.2014 - [@ CLI.processInLine(73)              ] [CLI]	size=    5161kB time=00:03:40.13 bitrate= 192.0kbits/s    
21:52:38.806 22.09.2014 - [@ CLI.processInLine(73)              ] [CLI]	size=    5683kB time=00:04:02.41 bitrate= 192.0kbits/s    
21:52:39.306 22.09.2014 - [@ CLI.processInLine(73)              ] [CLI]	size=    6195kB time=00:04:24.25 bitrate= 192.0kbits/s    
21:52:39.807 22.09.2014 - [@ CLI.processInLine(73)              ] [CLI]	size=    6718kB time=00:04:46.59 bitrate= 192.0kbits/s    
21:52:40.109 22.09.2014 - [@ CLI.processInLine(73)              ] [CLI]	size=    7027kB time=00:04:59.78 bitrate= 192.0kbits/s    
21:52:40.110 22.09.2014 - [@ CLI.processInLine(73)              ] [CLI]	
21:52:40.111 22.09.2014 - [@ CLI.processInLine(73)              ] [CLI]	video:0kB audio:7027kB subtitle:0kB other streams:0kB global headers:0kB muxing overhead: 0.010604%
21:53:55.208 22.09.2014 - [@ GracenoteWebAPI.searchTrack(90)    ] [GRACE]	searching for Iron Maiden -  - Wasted Years
21:53:57.815 22.09.2014 - [@ GracenoteMetadata.<init>(80)       ] [GRACE]	possible song match:	Wasted Years
21:53:57.836 22.09.2014 - [@ WebImage.<init>(33)                ] [GRACE]	saving image http://akamai-b.cdn.cddbp.net/cds/2.0/cover/8AC5/E77F/8883/9238_medium_front.jpg?cid=10483968 to thumbHTTP_1411415637835.png
